<svg width="101" height="103" viewBox="0 0 101 103" fill="none" xmlns="http://www.w3.org/2000/svg">
<path d="M84.2861 13.205C91.7639 20.2337 96.6626 28.4366 99.4671 38.3048C99.5331 38.5369 99.5991 38.769 99.6671 39.0081C100.725 42.9837 101.017 46.9349 100.999 51.0371C100.998 51.3904 100.998 51.3904 100.997 51.7507C100.981 55.2819 100.76 58.5498 99.8555 61.9783C99.7396 62.4923 99.6251 63.0067 99.5116 63.5213C97.606 71.8053 93.5309 79.2375 87.7706 85.4575C87.5984 85.6449 87.4262 85.8322 87.2488 86.0252C84.4776 89.0063 81.475 91.4721 78.1027 93.7443C77.7292 93.9967 77.3558 94.2491 76.9711 94.5091C66.5838 101.199 53.4824 103.698 41.3947 101.254C40.044 100.958 38.701 100.638 37.3592 100.305C36.936 100.205 36.5127 100.106 36.0766 100.004C30.9188 98.6166 25.7354 95.911 21.4762 92.7085C21.1891 92.4935 20.902 92.2785 20.6062 92.057C9.03696 83.0749 2.39165 70.8064 0.252066 56.3998C0.153908 55.4946 0.0999671 54.6015 0.0686338 53.6915C0.0508301 53.2994 0.0330264 52.9072 0.0146833 52.5032C-0.32715 38.3883 5.31902 25.5324 14.9158 15.365C15.1308 15.1318 15.3458 14.8986 15.5673 14.6583C22.9408 6.92924 33.4513 2.12145 43.9196 0.517845C44.1974 0.472891 44.4751 0.427937 44.7612 0.38162C59.039 -1.47747 73.7348 3.56089 84.2861 13.205Z" fill="#FCFCFC"/>
<path d="M64.0373 19.4032C66.7896 21.9704 68.0419 25.2768 68.1982 28.9821C68.1018 31.8998 67.2611 34.2596 65.2121 36.372C60.1473 40.4788 53.0178 41.7998 46.8379 43.2979C45.1542 43.7084 43.5009 44.1909 41.8488 44.7141C42.4289 47.3022 42.9607 49.4048 45.3016 50.9292C47.7427 52.0916 50.5434 51.9469 53.0489 51.0586C54.5548 50.3785 55.2874 49.6926 56.0054 48.1669C56.2333 47.3693 56.4612 46.5717 56.696 45.7499C60.3422 45.7499 63.9884 45.7499 67.745 45.7499C67.2595 49.6343 65.8624 52.4789 62.8598 55.0065C60.639 56.6775 58.2922 57.6692 55.6601 58.5254C55.406 58.6109 55.1518 58.6963 54.89 58.7844C50.2501 60.0767 44.6997 59.4269 40.4339 57.3021C36.0421 54.6622 33.5196 51.2691 32.2456 46.2894C32.1022 45.6507 31.965 45.0105 31.8356 44.3688C31.7762 44.1112 31.7168 43.8536 31.6556 43.5883C31.3156 41.6428 31.406 39.6492 31.404 37.6789C31.4036 37.4452 31.4033 37.2114 31.4029 36.9706C31.4063 33.5736 31.5121 30.3749 32.5261 27.1046C32.6643 26.6339 32.6643 26.6339 32.8053 26.1537C34.1212 22.3231 37.0358 19.3528 40.5068 17.3638C47.8273 13.804 57.5042 14.5062 64.0373 19.4032Z" fill="#FCB508"/>
<path d="M55.6596 23.6517C57.1661 24.9962 58.0079 26.1935 58.1629 28.2483C58.0369 30.1071 57.4785 31.121 56.2207 32.4781C52.8911 34.9992 45.6401 37.4631 41.503 37.4631C41.4725 36.269 41.4544 35.0751 41.4383 33.8808C41.4296 33.5474 41.4209 33.214 41.412 32.8705C41.385 30.1917 41.6417 27.4497 43.3158 25.2487C46.4731 22.2349 51.7701 21.4456 55.6596 23.6517Z" fill="#FDFCFA"/>
<path d="M44.61 65.7767C44.9518 65.5488 45.2937 65.3209 45.6459 65.0861C47.3661 64.868 49.2858 64.6718 50.8777 65.449C51.6036 66.0506 52.1293 66.6587 52.5515 67.5031C52.5814 68.3598 52.5915 69.2066 52.5853 70.0631C52.5848 70.315 52.5843 70.5669 52.5838 70.8265C52.5818 71.6322 52.5775 72.4378 52.5731 73.2435C52.5714 73.7893 52.5698 74.3351 52.5684 74.8809C52.5646 76.2198 52.5586 77.5586 52.5515 78.8975C51.526 78.8975 50.5006 78.8975 49.444 78.8975C49.439 78.5873 49.4339 78.2771 49.4287 77.9576C49.4077 76.8081 49.3821 75.659 49.3534 74.5098C49.3419 74.0121 49.3322 73.5144 49.3244 73.0167C49.3128 72.3017 49.2947 71.5872 49.2754 70.8723C49.2663 70.442 49.2573 70.0116 49.248 69.5683C49.1741 69.0588 49.1741 69.0588 49.0987 68.539C48.1196 67.7318 48.1196 67.7318 46.9838 67.9347C46.6563 68.0202 46.3287 68.1057 45.9912 68.1937C45.5093 69.1575 45.5706 69.9899 45.5366 71.0666C45.5222 71.5005 45.5077 71.9345 45.4928 72.3816C45.4792 72.8369 45.4656 73.2923 45.4516 73.7614C45.4367 74.224 45.4217 74.6866 45.4065 75.1493C45.3697 76.2835 45.3345 77.4178 45.3006 78.5522C44.2751 78.5522 43.2496 78.5522 42.193 78.5522C42.188 78.2525 42.183 77.9528 42.1778 77.644C42.1567 76.5332 42.1311 75.4226 42.1024 74.312C42.0909 73.8311 42.0812 73.3502 42.0734 72.8692C42.0619 72.1783 42.0432 71.4875 42.0244 70.7968C42.0154 70.3809 42.0064 69.965 41.997 69.5366C41.9478 69.2074 41.8985 68.8782 41.8478 68.539C40.868 67.7275 40.868 67.7275 39.7329 67.9563C38.7813 68.0923 38.7813 68.0923 38.3949 68.539C38.3402 69.2792 38.3082 70.0212 38.2857 70.7631C38.2712 71.2137 38.2567 71.6644 38.2418 72.1287C38.2281 72.6082 38.2144 73.0877 38.2007 73.5672C38.1858 74.048 38.1707 74.5288 38.1555 75.0097C38.1187 76.1905 38.0835 77.3713 38.0496 78.5522C37.0241 78.5522 35.9987 78.5522 34.9421 78.5522C34.8992 77.0658 34.868 75.5797 34.8473 74.0929C34.8386 73.5878 34.8268 73.0828 34.8118 72.5779C34.7908 71.8492 34.7811 71.1211 34.7735 70.3922C34.7644 69.9546 34.7554 69.517 34.7461 69.0662C35.0054 67.4552 35.5253 66.921 36.6685 65.7767C39.087 64.4301 42.1149 64.881 44.61 65.7767Z" fill="#29374A"/>
<path d="M31.8354 65.7764C32.895 66.6814 33.4597 67.318 33.7264 68.7018C33.8203 70.3796 33.8203 70.3796 33.5619 71.3009C32.2799 72.6628 31.0322 72.9631 29.2242 73.2863C28.9966 73.3295 28.7689 73.3726 28.5343 73.4171C27.4212 73.6207 26.4115 73.7179 25.2751 73.7179C25.4829 74.4155 25.7146 75.1063 25.9656 75.7896C27.0331 76.3234 27.8972 76.2363 29.0732 76.1349C29.2868 75.907 29.5005 75.6791 29.7206 75.4443C30.6109 74.6064 30.9067 74.66 32.0944 74.6674C32.5839 74.6895 33.0733 74.7162 33.5619 74.7537C33.1213 76.4758 32.4964 77.3981 31.1449 78.5519C29.2657 79.1783 26.7773 79.3356 24.9014 78.6247C24.3687 78.2713 24.3687 78.2713 23.5486 77.516C23.3421 77.338 23.1356 77.1599 22.9228 76.9765C21.8535 75.6821 22.104 73.9817 22.1028 72.4015C22.0985 72.1271 22.0943 71.8527 22.09 71.57C22.086 69.9692 22.1919 68.6442 22.8581 67.1575C25.5333 64.5417 28.5046 63.9437 31.8354 65.7764Z" fill="#2C3A4D"/>
<path d="M62.7074 65.3464C63.8858 65.9844 64.5063 66.6177 64.9828 67.8484C65.1457 69.211 65.1265 70.5773 65.1338 71.9486C65.1452 72.3203 65.1565 72.6919 65.1682 73.0748C65.189 76.1367 65.189 76.1367 64.218 77.3895C62.2145 79.0924 60.4036 79.0429 57.8465 79.0107C55.9757 78.8265 55.2379 78.13 53.9337 76.8258C53.6541 74.9978 53.5981 73.4975 54.689 71.9702C56.3089 70.8543 57.8013 70.4962 59.7388 70.2222C60.1398 70.1643 60.5408 70.1065 60.954 70.0469C61.41 69.9841 61.41 69.9841 61.8752 69.9201C61.6473 69.2364 61.4194 68.5528 61.1846 67.8484C60.1377 67.7694 59.1211 67.7207 58.0771 67.8484C57.7228 68.3019 57.3771 68.7622 57.0412 69.2295C56.092 69.3591 55.2426 69.2927 54.279 69.2295C54.4062 67.025 54.4062 67.025 55.4659 65.9925C57.5563 64.6668 60.343 64.6068 62.7074 65.3464Z" fill="#2D3C4E"/>
<path d="M75.0183 61.9443C76.2153 61.9612 76.2153 61.9612 77.4124 61.9781C77.4124 63.0035 77.4124 64.029 77.4124 65.0856C78.21 65.0856 79.0076 65.0856 79.8294 65.0856C79.8294 65.8832 79.8294 66.6808 79.8294 67.5026C79.0317 67.5026 78.2341 67.5026 77.4124 67.5026C77.5263 70.2372 77.6403 72.9719 77.7577 75.7894C78.5553 75.9033 79.3529 76.0173 80.1746 76.1347C80.1746 77.0462 80.1746 77.9578 80.1746 78.8969C76.4042 79.1675 76.4042 79.1675 74.9306 78.0985C73.8184 76.4494 73.9091 74.9445 73.9137 73.0244C73.9132 72.568 73.9132 72.568 73.9127 72.1024C73.9124 71.4598 73.9131 70.8172 73.9145 70.1747C73.9164 69.1873 73.9145 68.2 73.9123 67.2126C73.9126 66.589 73.913 65.9654 73.9137 65.3419C73.913 65.0448 73.9123 64.7477 73.9116 64.4416C73.9213 61.9962 73.9213 61.9962 75.0183 61.9443Z" fill="#323E50"/>
<path d="M71.8019 65.0642C72.0779 65.0674 72.3538 65.0705 72.6381 65.0737C72.8464 65.0777 73.0547 65.0817 73.2694 65.0858C73.2694 65.9974 73.2694 66.9089 73.2694 67.8481C72.2241 67.9324 72.2241 67.9324 71.1788 68.0167C70.3706 68.1498 70.3706 68.1498 69.8165 69.2292C69.6892 70.2328 69.6892 70.2328 69.6736 71.3697C69.6535 71.9956 69.6535 71.9956 69.6331 72.6342C69.6171 73.2881 69.6171 73.2881 69.6007 73.9553C69.5807 74.6152 69.5807 74.6152 69.5603 75.2885C69.5277 76.3763 69.4981 77.464 69.4712 78.5519C68.4457 78.5519 67.4203 78.5519 66.3637 78.5519C66.338 77.1083 66.3192 75.6648 66.3068 74.2211C66.3016 73.7304 66.2945 73.2398 66.2855 72.7492C66.2729 72.0421 66.2671 71.3351 66.2625 70.6279C66.2571 70.203 66.2517 69.778 66.2461 69.3402C66.4046 67.7942 66.9247 66.8958 68.0685 65.8627C69.2858 65.125 70.3969 65.0436 71.8019 65.0642Z" fill="#283648"/>
<path d="M59.6075 67.4377C60.0234 67.4303 60.0234 67.4303 60.4478 67.4229C61.1829 67.5024 61.1829 67.5024 61.8734 68.193C61.9166 69.0994 61.9166 69.0994 61.8734 69.9194C60.6617 70.4485 59.5539 70.7411 58.248 70.9337C56.8401 71.1746 55.7627 71.4242 54.6225 72.3364C54.172 73.2373 54.2314 73.921 54.234 74.926C54.2331 75.2643 54.2323 75.6026 54.2313 75.9511C54.2187 76.8231 54.2187 76.8231 54.6225 77.5156C53.9388 77.9714 53.2552 78.4272 52.5508 78.8968C52.5508 75.3645 52.5508 71.8323 52.5508 68.193C53.1205 68.0791 53.6902 67.9651 54.2772 67.8477C54.2772 68.3035 54.2772 68.7593 54.2772 69.2288C55.1887 69.2288 56.1003 69.2288 57.0395 69.2288C57.1463 69.0081 57.2531 68.7873 57.3632 68.5599C57.9738 67.3746 58.3052 67.4481 59.6075 67.4377Z" fill="#EAEBEC"/>
<path d="M62.2187 72.3369C62.4272 74.8386 62.4272 74.8386 61.5281 75.9624C60.1266 76.6632 59.2871 76.6335 57.73 76.4803C57.0394 75.7897 57.0394 75.7897 56.9531 74.7539C57.0394 73.718 57.0394 73.718 57.73 73.0275C58.5163 72.809 58.5163 72.809 59.4348 72.639C59.7371 72.5812 60.0393 72.5233 60.3507 72.4637C61.1828 72.3369 61.1828 72.3369 62.2187 72.3369Z" fill="#F4F4F5"/>
<path d="M28.6732 67.3531C29.5827 67.536 29.8979 67.806 30.4536 68.5387C30.5615 69.4235 30.5615 69.4235 30.4536 70.2651C29.497 71.2217 28.8082 71.0931 27.4755 71.1715C27.0651 71.1973 26.6547 71.2231 26.2319 71.2497C25.9159 71.2666 25.5999 71.2835 25.2743 71.301C25.206 70.1162 25.1686 69.1588 25.598 68.0423C26.603 67.2809 27.4403 67.3511 28.6732 67.3531Z" fill="#F3F3F4"/>
<path d="M33.5615 74.7538C33.121 76.4759 32.496 77.3982 31.1445 78.5519C30.0571 78.9144 29.2841 78.9322 28.1449 78.9188C27.8017 78.9157 27.4585 78.9125 27.105 78.9093C26.7117 78.9033 26.7117 78.9033 26.3105 78.8972C26.3105 78.7832 26.3105 78.6693 26.3105 78.5519C27.2221 78.5519 28.1336 78.5519 29.0728 78.5519C29.3081 77.8987 29.3081 77.8987 29.4181 77.1708C29.1902 76.9429 28.9623 76.715 28.7275 76.4802C30.197 74.5841 31.3222 74.5342 33.5615 74.7538Z" fill="#253144"/>
<path d="M61.5293 70.2646C61.5293 70.7204 61.5293 71.1762 61.5293 71.6458C61.7572 71.7597 61.9851 71.8737 62.2198 71.9911C60.9876 72.8126 59.9896 72.9382 58.5512 73.178C57.6461 73.3421 57.6461 73.3421 56.6953 74.0628C57.0417 73.2901 57.3323 72.7332 57.947 72.1421C58.5411 71.6355 58.5411 71.6355 58.4217 70.6099C59.5105 70.368 60.3993 70.2646 61.5293 70.2646Z" fill="#243245"/>
<path d="M58.077 70.9553C57.3864 71.9911 57.3864 71.9911 56.1779 72.3796C54.9362 72.8801 54.9362 72.8801 54.6578 73.7836C54.4897 74.5679 54.3608 75.3369 54.2788 76.1345C54.1649 76.1345 54.051 76.1345 53.9336 76.1345C53.6625 73.3694 53.6625 73.3694 54.7536 71.9911C55.9839 71.0538 56.5519 70.9152 58.077 70.9553Z" fill="#273444"/>
<path d="M56.6947 46.0957C58.0621 46.0957 59.4294 46.0957 60.8381 46.0957C60.8381 46.2096 60.8381 46.3236 60.8381 46.441C59.5848 46.441 58.3314 46.441 57.04 46.441C57.0115 46.8683 56.9831 47.2956 56.9537 47.7358C56.8209 48.8541 56.7292 49.1615 55.9826 50.0665C55.7618 50.2374 55.5411 50.4083 55.3136 50.5844C55.0857 50.4704 54.8578 50.3565 54.623 50.2391C54.8367 49.94 55.0503 49.6409 55.2705 49.3327C55.9512 48.2516 56.3459 47.3167 56.6947 46.0957Z" fill="#F9A70B"/>
<path d="M30.4535 70.9557C30.4535 71.1836 30.4535 71.4115 30.4535 71.6462C28.8461 71.9356 27.5632 71.9971 25.9648 71.6462C25.9648 71.5323 25.9648 71.4184 25.9648 71.301C26.5829 71.1759 27.2017 71.0543 27.8207 70.9341C28.3375 70.832 28.3375 70.832 28.8647 70.7277C29.763 70.6104 29.763 70.6104 30.4535 70.9557Z" fill="#222D41"/>
<path d="M33.9065 23.6514C34.0205 23.6514 34.1344 23.6514 34.2518 23.6514C34.4113 25.3526 33.847 26.5888 33.216 28.1401C32.9881 28.0261 32.7602 27.9122 32.5254 27.7948C32.6901 27.2335 32.8557 26.6724 33.0217 26.1115C33.1139 25.7991 33.206 25.4866 33.3009 25.1647C33.5612 24.3419 33.5612 24.3419 33.9065 23.6514Z" fill="#FBB525"/>
<path d="M61.1833 72.3369C61.5252 72.3369 61.867 72.3369 62.2192 72.3369C62.2192 73.2485 62.2192 74.16 62.2192 75.0992C61.8773 74.8713 61.5355 74.6434 61.1833 74.4086C61.1186 73.3296 61.1186 73.3296 61.1833 72.3369Z" fill="#CACED3"/>
<path d="M54.6232 71.9912C54.9651 72.1052 55.3069 72.2191 55.6591 72.3365C55.4134 72.6035 55.4134 72.6035 55.1627 72.876C54.4754 73.9482 54.3986 74.88 54.278 76.1346C54.164 76.1346 54.0501 76.1346 53.9327 76.1346C53.9139 75.6384 53.9006 75.142 53.8895 74.6456C53.8815 74.3692 53.8735 74.0928 53.8652 73.808C53.9327 73.0271 53.9327 73.0271 54.6232 71.9912Z" fill="#1B2432"/>
<path d="M64.2913 35.3916C64.6331 35.6195 64.975 35.8474 65.3271 36.0822C64.7574 36.5379 64.1877 36.9937 63.6007 37.4633C63.3728 37.3494 63.1449 37.2354 62.9102 37.118C62.9102 36.8901 62.9102 36.6622 62.9102 36.4275C63.252 36.1996 63.5938 35.9717 63.946 35.7369C64.0599 35.6229 64.1739 35.509 64.2913 35.3916Z" fill="#F7A811"/>
</svg>
