<?xml version="1.0" encoding="UTF-8"?>
<svg id="_레이어_1" data-name="레이어 1" xmlns="http://www.w3.org/2000/svg" viewBox="0 0 850.39 850.39">
  <defs>
    <style>
      .cls-1 {
        fill: #b52831;
      }
    </style>
  </defs>
  <path class="cls-1" d="M173.84,367.81v-63.57c0-.84-.92-1.35-1.63-.91l-29.96,18.34c-.32.19-.51.54-.51.91v138.85c0,9.13,7.4,16.53,16.53,16.53h135.62c9.13,0,16.52-7.4,16.52-16.52v-72.46c0-9.13-7.4-16.52-16.52-16.52h-115.4c-2.56,0-4.64-2.08-4.64-4.64ZM273.42,455.37h-94.94c-2.56,0-4.64-2.08-4.64-4.64v-51.06c0-2.56,2.08-4.64,4.64-4.64h94.94c2.56,0,4.64,2.08,4.64,4.64v51.06c0,2.56-2.08,4.64-4.64,4.64Z"/>
  <path class="cls-1" d="M351.62,367.81v-63.57c0-.84-.92-1.35-1.63-.91l-29.96,18.34c-.32.19-.51.54-.51.91v138.85c0,9.13,7.4,16.53,16.53,16.53h135.62c9.13,0,16.52-7.4,16.52-16.52v-72.46c0-9.13-7.4-16.52-16.52-16.52h-115.4c-2.56,0-4.64-2.08-4.64-4.64ZM451.21,455.37h-94.94c-2.56,0-4.64-2.08-4.64-4.64v-51.06c0-2.56,2.08-4.64,4.64-4.64h94.94c2.56,0,4.64,2.08,4.64,4.64v51.06c0,2.56-2.08,4.64-4.64,4.64Z"/>
  <path class="cls-1" d="M676.56,482.59v63.57c0,.84.92,1.35,1.63.91l29.96-18.34c.32-.19.51-.54.51-.91v-138.85c0-9.13-7.4-16.53-16.53-16.53h-135.62c-9.13,0-16.52,7.4-16.52,16.52v72.46c0,9.13,7.4,16.52,16.52,16.52h115.4c2.56,0,4.64,2.08,4.64,4.64ZM576.97,395.02h94.94c2.56,0,4.64,2.08,4.64,4.64v51.06c0,2.56-2.08,4.64-4.64,4.64h-94.94c-2.56,0-4.64-2.08-4.64-4.64v-51.06c0-2.56,2.08-4.64,4.64-4.64Z"/>
  <circle class="cls-1" cx="514.09" cy="424.42" r="16"/>
</svg>