<?xml version="1.0" encoding="UTF-8"?>
<svg id="_레이어_1" data-name="레이어 1" xmlns="http://www.w3.org/2000/svg" viewBox="0 0 850.39 850.39">
  <defs>
    <style>
      .cls-1 {
        fill: #f8cd01;
      }

      .cls-2 {
        fill: #2e2d2c;
      }
    </style>
  </defs>
  <path class="cls-1" d="M210.73,287.21v-90.34h-57.12v297.17h93.73c32.55,0,64.66-15.8,64.66-48.35v-158.48h-101.27ZM254.88,447.65h-44.15v-112.23h44.15v112.23Z"/>
  <path class="cls-1" d="M403.12,287.21v-90.34h-57.12v297.17h57.12v-158.62h44.15v158.62h57.12v-167.08c0-21.95-26.48-39.75-56.42-39.75h-44.85Z"/>
  <path class="cls-1" d="M538.4,329.91v164.13h96.99c33.27,0,61.4-19.03,61.4-42.5v-35.2h-57.12v31.31h-44.15v-112.23h44.15v29.49h57.12v-77.7h-102.3c-33.53,0-56.08,19.12-56.08,42.7Z"/>
  <polygon class="cls-2" points="284.93 526.58 284.93 571.32 275.51 571.32 275.51 526.58 242.5 526.58 242.5 650.21 275.51 650.21 275.51 597.33 284.93 597.33 284.93 650.21 317.93 650.21 317.93 526.58 284.93 526.58"/>
  <rect class="cls-2" x="330.95" y="526.58" width="33.01" height="123.63"/>
  <polygon class="cls-2" points="611.95 550.98 611.95 526.58 555.8 526.58 555.8 650.21 611.95 650.21 611.95 625.8 586.74 625.8 586.74 598.59 608.57 598.59 608.57 574.19 586.74 574.19 586.74 550.98 611.95 550.98"/>
  <path class="cls-2" d="M229.49,580.4v-19.21c0-20.95-8.89-37.94-37.94-37.94s-37.94,16.98-37.94,37.94v54.41c0,20.95,8.89,37.94,37.94,37.94s37.94-16.98,37.94-37.94v-14.8h-31.84v24.79c0,3.37-2.73,6.1-6.1,6.1s-6.1-2.73-6.1-6.1v-74.38c0-3.37,2.73-6.1,6.1-6.1s6.1,2.73,6.1,6.1v29.2h31.84Z"/>
  <path class="cls-2" d="M452.85,580.4v-19.21c0-20.95-8.89-37.94-37.94-37.94s-37.94,16.98-37.94,37.94v54.41c0,20.95,8.89,37.94,37.94,37.94s37.94-16.98,37.94-37.94v-14.8h-31.84v24.79c0,3.37-2.73,6.1-6.1,6.1s-6.1-2.73-6.1-6.1v-74.38c0-3.37,2.73-6.1,6.1-6.1s6.1,2.73,6.1,6.1v29.2h31.84Z"/>
  <polygon class="cls-2" points="542.78 526.58 513.43 526.58 498.87 570.2 498.87 526.58 465.87 526.58 465.87 650.21 498.87 650.21 498.87 595.02 513.43 650.21 542.78 650.21 524.57 581.16 542.78 526.58"/>
  <polygon class="cls-2" points="670.82 526.04 670.82 584.27 650.93 526.04 624.97 526.04 624.97 650.74 650.93 650.74 650.93 592.52 670.82 650.74 696.78 650.74 696.78 526.04 670.82 526.04"/>
</svg>