<?xml version="1.0" encoding="UTF-8"?>
<svg id="_레이어_1" data-name="레이어 1" xmlns="http://www.w3.org/2000/svg" viewBox="0 0 850.39 850.39">
  <defs>
    <style>
      .cls-1 {
        fill: #652c8c;
      }

      .cls-2 {
        fill: #aace37;
      }
    </style>
  </defs>
  <path class="cls-2" d="M527.9,599.35h-211.79c-96.03,0-174.15-78.12-174.15-174.15s78.12-174.15,174.15-174.15h69.42c9.94,0,18,8.06,18,18s-8.06,18-18,18h-69.42c-76.18,0-138.15,61.97-138.15,138.15s61.97,138.15,138.15,138.15h211.79c27.77,0,54.54-8.2,77.42-23.72,4.17-2.83,9.34-3.78,14.25-2.62l39.91,9.45-14.5-33.12c-2.35-5.37-1.94-11.55,1.1-16.56,13.06-21.51,19.97-46.27,19.97-71.58,0-76.18-61.97-138.15-138.15-138.15h-69.42c-9.94,0-18-8.06-18-18s8.06-18,18-18h69.42c96.03,0,174.15,78.12,174.15,174.15,0,28.71-7.05,56.85-20.47,81.98l25.35,57.9c2.74,6.25,1.7,13.51-2.67,18.75-4.37,5.24-11.33,7.56-17.97,5.98l-67.56-16c-27.31,16.73-58.54,25.54-90.83,25.54Z"/>
  <path class="cls-1" d="M508.04,508.34c-43.87,0-79.57-35.69-79.57-79.57v-59.72c0-12.7,10.3-23,23-23s23,10.3,23,23v59.72c0,18.51,15.06,33.57,33.57,33.57s33.57-15.06,33.57-33.57v-59.72c0-12.7,10.3-23,23-23s23,10.3,23,23v59.72c0,43.87-35.69,79.57-79.57,79.57Z"/>
  <path class="cls-1" d="M337.1,508.94h-.27c-45.4,0-82.33-36.99-82.33-82.46s36.93-82.46,82.33-82.46h.27c22.6,0,43.89,8.44,59.97,23.77,9.19,8.77,9.54,23.32.78,32.52-8.77,9.19-23.32,9.54-32.52.77-7.48-7.13-17.51-11.06-28.23-11.06h-.27c-20.03,0-36.33,16.36-36.33,36.46s16.3,36.46,36.33,36.46h.27c10.72,0,20.75-3.93,28.23-11.06,9.2-8.77,23.75-8.42,32.52.78,8.77,9.19,8.42,23.75-.78,32.52-16.08,15.33-37.37,23.77-59.97,23.77Z"/>
</svg>