<?xml version="1.0" encoding="UTF-8"?>
<svg id="_레이어_1" data-name="레이어 1" xmlns="http://www.w3.org/2000/svg" viewBox="0 0 850.39 850.39">
  <defs>
    <style>
      .cls-1 {
        fill: #2abada;
      }

      .cls-2 {
        fill: #fff;
      }

      .cls-3 {
        fill: #006fba;
        fill-rule: evenodd;
      }
    </style>
  </defs>
  <g>
    <path class="cls-3" d="M289.81,496.46v-84.01h-72.3l5.07,31.74h29.96v30.73c-6.98,3.8-13.76,5.54-23.26,5.54-29.77,0-44.74-22.79-44.74-55.26s14.47-54.28,44.26-54.28c17.78,0,33.01,6.5,46,14.75l5.77-37.25c-13.77-7.77-31.52-12.75-52.78-12.75-53.28,0-86.03,36.22-86.03,89.76s30.27,89.29,85.04,89.29c23.76,0,45.03-6.49,63.04-18.26Z"/>
    <path class="cls-3" d="M430.41,459.44c0-27.49-14.97-40.5-52.47-54.27-21.53-8.23-26.31-12.48-26.31-21.29,0-7.99,6.26-13.41,19.3-13.41s29.49,4.96,44.98,13.94l6.51-35.98c-15.04-7.25-29.51-11.51-52.02-11.51-32.99,0-59,17.71-59,51.01,0,28.5,14.98,39.78,49.5,53.01,24.27,9.28,29.26,13.8,29.26,23.53,0,10.25-8.5,15.51-20.78,15.51-17.24,0-36.97-6.51-54.75-15.98l-6.24,36.49c17.52,7.99,37.02,12.96,60.24,12.96,34.29,0,61.78-16.47,61.78-53.99Z"/>
  </g>
  <path class="cls-1" d="M517.64,451.34c19.91-13.09,46.95-30.12,46.95-62.54,0-35.6-30.16-51.81-58.18-51.81-41.8,0-58.66,33.23-61.03,38.42l32.26,15.09c2.01-3.6,10.98-17.96,25.99-17.96,9.69,0,19.15,7.96,19.15,20.34,0,9.97-11.23,17.49-25.21,27.02-22.16,15.1-49.74,33.89-49.74,72.52,0,5.06.57,10.69,1.8,17.66h115.01v-34.59h-70.94c0-7.58,11-15.64,23.95-24.15Z"/>
  <path class="cls-2" d="M654.38,424.23c-9.13,0-16.56-7.43-16.56-16.57s7.43-16.56,16.56-16.56,16.57,7.43,16.57,16.56-7.43,16.57-16.57,16.57Z"/>
  <path class="cls-1" d="M664.47,389.56c-2.22-.72-6.13-1.79-10.09-1.79-10.99,0-19.9,8.91-19.9,19.89,0,7.47,3.96,13.86,10.21,17.37,2.75,1.55,9.75,3.66,11.72,4.71,8.36,4.47,14.05,13.29,14.05,23.43,0,14.67-11.89,26.57-26.57,26.57-13.92,0-25.33-10.71-26.47-24.34l-35.6,7.74c5.8,29.39,31.71,51.56,62.81,51.56,35.36,0,64.03-28.66,64.03-64.03,0-28.45-18.53-52.79-44.19-61.13ZM654.38,420.9c-7.3,0-13.23-5.94-13.23-13.24s5.94-13.23,13.23-13.23,13.23,5.94,13.23,13.23-5.93,13.24-13.23,13.24Z"/>
  <path class="cls-1" d="M592.94,339.37l-7.01,79.92h35.81l4.57-45.41h41.13c24.33,0,33.17-19.73,33.17-34.51h-107.67Z"/>
</svg>