<svg width="34" height="33" viewBox="0 0 34 33" fill="none" xmlns="http://www.w3.org/2000/svg">
<path d="M13.1504 17C14.8069 17.0002 16.1502 18.3435 16.1504 20V29.3008C16.1502 30.9573 14.8069 32.3006 13.1504 32.3008H3C1.34328 32.3008 0.000211014 30.9575 0 29.3008V20C0.000212389 18.3433 1.34328 17 3 17H13.1504ZM31 17C32.6567 17 33.9998 18.3433 34 20V29.3008C33.9998 30.9575 32.6567 32.3008 31 32.3008H20.8496C19.1931 32.3006 17.8498 30.9573 17.8496 29.3008V20C17.8498 18.3435 19.1931 17.0002 20.8496 17H31ZM13.1504 0C14.8069 0.000211956 16.1502 1.34346 16.1504 3V12.3008C16.1502 13.9573 14.8069 15.3006 13.1504 15.3008H3C1.34328 15.3008 0.000211223 13.9575 0 12.3008V3C0.000212179 1.34333 1.34328 -7.24177e-08 3 0H13.1504ZM31 0C32.6567 7.04018e-07 33.9998 1.34333 34 3V12.3008C33.9998 13.9575 32.6567 15.3008 31 15.3008H20.8496C19.1931 15.3006 17.8498 13.9573 17.8496 12.3008V3C17.8498 1.34346 19.1931 0.000211162 20.8496 0H31Z" fill="url(#paint0_linear_1546_9550)"/>
<defs>
<linearGradient id="paint0_linear_1546_9550" x1="25.925" y1="17.0004" x2="25.925" y2="32.3008" gradientUnits="userSpaceOnUse">
<stop stop-color="#126DFB"/>
<stop offset="1" stop-color="#81B2FF"/>
</linearGradient>
</defs>
</svg>
