<?xml version="1.0" encoding="UTF-8"?>
<svg id="_레이어_1" data-name="레이어 1" xmlns="http://www.w3.org/2000/svg" viewBox="0 0 850.39 850.39">
  <defs>
    <style>
      .cls-1 {
        fill: #fe0100;
      }

      .cls-2 {
        fill: #0190e1;
      }
    </style>
  </defs>
  <path class="cls-1" d="M610.83,220.16l-107.09-107.09c-4.87-4.87-12.77-4.87-17.64,0l-115.91,115.91,124.72,124.72,115.91-115.91c4.87-4.87,4.87-12.77,0-17.64ZM516.12,250.18c-11.71,11.71-30.68,11.71-42.39,0s-11.71-30.68,0-42.39,30.68-11.71,42.39,0,11.71,30.68,0,42.39Z"/>
  <path class="cls-2" d="M364.44,235.34l-115.91,115.91c-4.87,4.87-4.87,12.77,0,17.64l107.09,107.09c4.87,4.87,12.77,4.87,17.64,0l115.91-115.91-124.72-124.72ZM319.74,390.64c-16.55,0-29.97-13.42-29.97-29.97s13.42-29.97,29.97-29.97,29.97,13.42,29.97,29.97-13.42,29.97-29.97,29.97ZM410.35,390.64c-16.55,0-29.97-13.42-29.97-29.97s13.42-29.97,29.97-29.97,29.97,13.42,29.97,29.97-13.42,29.97-29.97,29.97Z"/>
  <path class="cls-2" d="M205.16,533.66h-43.71v88.95h43.71c24.56,0,44.48-19.91,44.48-44.48h0c0-24.56-19.91-44.48-44.48-44.48ZM201.93,597.88h-12.96v-39.49h12.96c10.9,0,19.74,8.84,19.74,19.74s-8.84,19.74-19.74,19.74Z"/>
  <path class="cls-2" d="M288.26,553.63c-19.05,0-34.49,15.44-34.49,34.49s15.44,34.49,34.49,34.49,34.49-15.44,34.49-34.49-15.44-34.49-34.49-34.49ZM288.26,599.67c-6.38,0-11.56-5.17-11.56-11.56s5.17-11.56,11.56-11.56,11.56,5.17,11.56,11.56-5.17,11.56-11.56,11.56Z"/>
  <path class="cls-2" d="M582.49,553.63c-19.05,0-34.49,15.44-34.49,34.49s15.44,34.49,34.49,34.49,34.49-15.44,34.49-34.49-15.44-34.49-34.49-34.49ZM582.49,599.67c-6.38,0-11.56-5.17-11.56-11.56s5.17-11.56,11.56-11.56,11.56,5.17,11.56,11.56-5.17,11.56-11.56,11.56Z"/>
  <rect class="cls-2" x="441.82" y="556.61" width="24.35" height="64.4"/>
  <path class="cls-2" d="M416.06,555.07h-5.41c-6.72,0-16.18,4.44-19.44,10.54-2.67-5.51-9.73-10.54-16.25-10.54h-5.41c-6.06,0-14.36,3.62-18.32,8.82v-7.28h-24.35v64.4h24.35v-40.53c8.5-7.57,16.76-2.62,16.76,2.34v38.19h24.35v-40.53c8.5-7.57,16.76-2.62,16.76,2.34v38.19h24.35v-51.02h0c0-6.87-9.13-14.92-17.37-14.92Z"/>
  <path class="cls-2" d="M522.44,555.07h-5.41c-6.06,0-14.36,3.62-18.32,8.82v-7.28h-24.35v64.4h24.35v-40.53c8.5-7.57,16.76-2.62,16.76,2.34v38.19h24.35v-51.02h0c0-6.87-9.13-14.92-17.37-14.92Z"/>
  <circle class="cls-2" cx="453.99" cy="539.71" r="13.92"/>
  <polygon class="cls-2" points="382.48 676.05 382.48 696.81 404.98 696.81 382.48 721.64 382.48 739.05 437.32 739.05 437.32 718.28 413.55 718.28 437.32 692.05 437.32 676.05 382.48 676.05"/>
  <polygon class="cls-2" points="445.06 676.05 445.06 696.81 467.56 696.81 445.06 721.64 445.06 739.05 499.9 739.05 499.9 718.28 476.13 718.28 499.9 692.05 499.9 676.05 445.06 676.05"/>
  <rect class="cls-2" x="349.68" y="674.65" width="24.35" height="64.4"/>
  <circle class="cls-2" cx="361.85" cy="657.75" r="13.92"/>
  <path class="cls-2" d="M635.64,539.71c0-7.69-6.23-13.92-13.92-13.92s-13.92,6.23-13.92,13.92c0,6.8,4.87,12.45,11.31,13.67-1.04.8-1.78,1.26-1.82,1.29-1.89,1.14-2.5,3.59-1.37,5.48.75,1.25,2.08,1.95,3.44,1.95.7,0,1.41-.18,2.05-.57.51-.3,14.23-7.05,14.23-21.81Z"/>
  <path class="cls-2" d="M662.29,622.61c14.02,0,26.65-9.31,26.65-20.79v-1.79c0-13.11-14.87-21.32-30.07-21.32-1.98,0-6.55.48-6.55-2.39s4.09-2.87,6.56-2.87c7.67,0,13.28,2.74,18.56,5.95l8.26-14.05c-3.56-5.44-15.02-9.74-26.82-9.74-23.24,0-30.07,9.75-30.07,20.64h0c0,11.01,11.63,20.23,30.07,20.78,2.32,0,7.96.55,7.96,3.59s-4.35,3.05-7.67,3.05c-8.96-.56-15.53-2.91-21.71-6.32l-11.34,14.67c7.1,6.36,18.42,10.59,36.17,10.59Z"/>
  <path class="cls-2" d="M310.86,651.05h-36.52v87.99h27.36v-21.67h9.16c18.31,0,33.16-14.85,33.16-33.16h0c0-18.31-14.85-33.16-33.16-33.16ZM308.25,694.2h-6.55v-19.97h6.55c5.51,0,9.98,4.47,9.98,9.98s-4.47,9.98-9.98,9.98Z"/>
  <path class="cls-2" d="M551.44,674.65v6.07c-5.13-4.99-11.75-7.99-18.98-7.99-16.3,0-29.52,15.28-29.52,34.12s13.22,34.12,29.52,34.12c7.23,0,13.85-3.01,18.98-7.99v6.07h24.35v-64.4h-24.35ZM539.39,718.4c-6.38,0-11.56-5.17-11.56-11.56s5.17-11.56,11.56-11.56,11.56,5.17,11.56,11.56-5.17,11.56-11.56,11.56Z"/>
  <path class="cls-2" d="M583.84,674.96c-3.21,0-5.82,2.61-5.82,5.82s2.61,5.82,5.82,5.82,5.82-2.61,5.82-5.82-2.61-5.82-5.82-5.82ZM583.84,685.59c-2.66,0-4.82-2.16-4.82-4.82s2.16-4.82,4.82-4.82,4.82,2.16,4.82,4.82-2.16,4.82-4.82,4.82Z"/>
  <path class="cls-2" d="M585.22,681.25c.4-.18.71-.44.93-.77.22-.33.33-.71.33-1.14s-.11-.81-.33-1.13c-.22-.33-.53-.58-.93-.76-.4-.18-.86-.27-1.38-.27h-2.28v7.2h1.07v-2.85h.91l1.91,2.85h1.24l-1.99-2.96c.18-.04.35-.09.51-.16ZM582.63,678.16h1.24c.48,0,.85.1,1.12.31.27.21.4.5.4.88s-.13.67-.4.88c-.27.21-.64.32-1.12.32h-1.24v-2.4Z"/>
</svg>