<?xml version="1.0" encoding="utf-8"?>
<!-- Generator: Adobe Illustrator 25.4.1, SVG Export Plug-In . SVG Version: 6.00 Build 0)  -->
<svg version="1.1" id="레이어_1" xmlns="http://www.w3.org/2000/svg" xmlns:xlink="http://www.w3.org/1999/xlink" x="0px"
	 y="0px" viewBox="0 0 425.2 118.2" style="enable-background:new 0 0 425.2 118.2;" xml:space="preserve">
<style type="text/css">
	.st0{fill:#452613;}
	.st1{fill:#FFDC00;}
</style>
<g>
	<polygon class="st0" points="34.6,34.2 24.5,65.4 14.4,34.2 0.1,34.2 0,34.2 0.1,34.4 0.1,94.8 13.8,94.8 13.8,76.6 19.7,94.8 
		29.4,94.8 35.3,76.6 35.3,94.8 49,94.8 49,34.4 49,34.2 49,34.2 	"/>
	<g>
		<path class="st1" d="M248.2,27.6l-3.1-0.9l1.1-3.8c0.3-1.2-0.4-2.1-1.6-2.6L200.7,4l-10.7-3.9c-1.1-0.4-2.4,0.2-2.7,1.4l-1.9,7.2
			l0,0l-5.2-1.6c-1.1-0.3-2.4,0.2-2.8,1.3l-3.6,8.1L248.4,39l1.5-8.7C250.1,29.1,249.4,27.9,248.2,27.6z"/>
		<polygon class="st1" points="212.4,60 198.8,28.3 177.2,21.8 184.3,76.2 197.4,76.8 196.1,53.8 205.8,76.8 219,76.8 228.6,54.1 
			227,76.8 239.7,76.1 244.6,42.1 222.9,35.6 		"/>
		<path class="st1" d="M198.8,101.4c2.8,0.5,4.9,0.5,4.9,0.5l0.1,5c-2.5-0.2-6.1-0.9-7.5-1.2c-1.4-0.4-1.6-1.8-1.6-1.8l-1.2-14.6
			c0,0-0.1-0.9,1.7-0.7c6.7,0.9,16.1,0.7,16.1,0.7v-8.7c-5.1-0.1-22.1-1.3-22.1-1.3c-5.3-0.3-4.7,3.9-4.7,3.9s2.3,17.4,3,22.2
			c0.7,4.8,2.4,6.5,4,8.2c1.7,1.7,7.3,3.7,11.1,4.3c3.8,0.6,9.1,0.5,9.1,0.5v-24c-7.6,0-13.3-0.7-13.3-0.7L198.8,101.4z"/>
		<path class="st1" d="M213.9,86.8c0,4.3-0.2,23.1-0.2,23.1s-0.7,8.2,5.4,7.8c6.1-0.3,11.6-2.7,15.8-5.9l1-9.8c0,0-4.7,3.1-9.8,4
			c0,0-1.4,0.3-2,0.3c-0.6,0-1-0.3-1-1.3c0-1,0.8-14.9,0.8-14.9s0.1-1.2,1.7-1.4c1.6-0.2,9.6-1.1,12.2-2.2l1.1-7.3
			c0,0-15.1,1.1-18.7,1.2S213.9,82.5,213.9,86.8z"/>
	</g>
	<polygon class="st0" points="87.7,94.8 87.7,83.1 70.8,83.1 70.8,70.3 85.3,70.3 85.3,58.7 70.8,58.7 70.8,45.9 87.7,45.9 
		87.7,34.2 57.1,34.2 57.1,94.8 	"/>
	<polygon class="st0" points="397.2,94.8 397.2,83.1 384.1,83.1 384.1,70.3 395.3,70.3 395.3,58.7 384.1,58.7 384.1,45.9 
		397.2,45.9 397.2,34.2 373.5,34.2 373.5,94.8 	"/>
	<polygon class="st0" points="332.2,94.8 332.2,70.3 343.4,70.3 343.4,58.7 332.2,58.7 332.2,45.9 345.3,45.9 345.3,34.2 
		321.6,34.2 321.6,94.8 	"/>
	<polygon class="st0" points="358.2,94.8 358.2,70.3 369.4,70.3 369.4,58.7 358.2,58.7 358.2,45.9 371.2,45.9 371.2,34.2 
		347.6,34.2 347.6,94.8 	"/>
	<polygon class="st0" points="425.2,94.8 425.2,83.1 412.2,83.1 412.2,70.3 423.4,70.3 423.4,58.7 412.2,58.7 412.2,45.9 
		425.2,45.9 425.2,34.2 401.5,34.2 401.5,94.8 	"/>
	<path class="st0" d="M113,55.2h13.6c0,0,0,0,0,0V45.1c0-7.1-3.4-12.9-16.4-12.9S93.9,38,93.9,45.1v38.7c0,7.1,3.4,12.9,16.4,12.9
		s16.4-5.7,16.4-12.9V58.7c0,0,0,0,0,0h-17.5c0,0,0,0,0,0v11.6c0,0,0,0,0,0h3.8c0,0,0,0,0,0v12c0,1.4-1,2.7-2.5,2.8
		c-1.6,0.1-2.9-1.1-2.9-2.7V46.7c0-1.4,1-2.7,2.5-2.8c1.6-0.1,2.9,1.1,2.9,2.7L113,55.2C113,55.2,113,55.2,113,55.2z"/>
	<path class="st0" d="M274.5,72.7C274.5,72.7,274.6,72.7,274.5,72.7l0,8.7c0,1.4-0.8,2.7-2,2.8c-1.3,0.1-2.3-1.1-2.3-2.6V46.5
		c0-1.4,0.8-2.7,2-2.8c1.3-0.1,2.3,1.1,2.3,2.6v9c0,0,0,0,0,0h10.9c0,0,0,0,0,0V44.9c0-7-2.7-12.7-13.1-12.7s-13.1,5.7-13.1,12.7V83
		c0,7,2.7,12.7,13.1,12.7S285.5,90,285.5,83V72.7c0,0,0,0,0,0H274.5z"/>
	<path class="st0" d="M315.7,44.9c0-7-2.7-12.7-13.1-12.7c-10.3,0-13.1,5.7-13.1,12.7V83c0,7,2.7,12.7,13.1,12.7
		c10.3,0,13.1-5.6,13.1-12.7V44.9z M304.8,81.5c0,1.4-0.8,2.7-2,2.8c-1.3,0.1-2.3-1.1-2.3-2.6V46.5c0-1.4,0.8-2.7,2-2.8
		c1.3-0.1,2.3,1.1,2.3,2.6V81.5z"/>
	<path class="st0" d="M141.3,34.2l-10.9,60.5h13.7l1.6-11.8h9.1l1.6,11.8H170l-10.9-60.5H141.3z M147.1,72.5l3.2-23.7l3.2,23.7
		H147.1z"/>
	<g>
		<path class="st0" d="M34.6,101.7c1-0.2,2.7-0.3,4.4-0.3c2,0,3.4,0.2,4.6,1c1.1,0.7,1.7,1.7,1.7,3.2c0,1.5-0.8,2.8-2.6,3.5v0.1
			c1.9,0.5,3.2,2,3.2,4c0,1.5-0.6,2.6-1.6,3.4c-1.1,1-3,1.5-6.1,1.5c-1.6,0-2.9-0.1-3.7-0.2V101.7z M38.1,108h1
			c1.7,0,2.7-0.9,2.7-2.1c0-1.2-0.8-2-2.4-2c-0.7,0-1.1,0-1.4,0.1V108z M38.1,115.2c0.3,0.1,0.7,0.1,1.2,0.1c1.6,0,2.9-0.7,2.9-2.4
			c0-1.6-1.4-2.4-3-2.4h-1.1V115.2z"/>
		<path class="st0" d="M59.7,101.4v16.3h-3.5v-16.3H59.7z"/>
		<path class="st0" d="M82.8,117.1c-1,0.4-3,0.8-4.8,0.8c-2.7,0-4.6-0.7-6-2c-1.5-1.4-2.3-3.6-2.3-6.2c0-5.6,3.8-8.5,8.6-8.5
			c1.9,0,3.3,0.4,4,0.7l-0.7,2.9c-0.8-0.4-1.7-0.6-3.2-0.6c-2.8,0-5,1.7-5,5.4c0,3.6,1.9,5.4,4.5,5.4c0.7,0,1.2-0.1,1.5-0.2v-3.6
			h-2.2v-2.8h5.6V117.1z"/>
		<path class="st0" d="M105.6,114.1c0.9,0.5,2.3,0.9,3.7,0.9c1.6,0,2.5-0.7,2.5-1.8s-0.8-1.6-2.5-2.4c-2.6-1.1-4.1-2.7-4.1-4.8
			c0-2.7,2.2-4.9,5.9-4.9c1.6,0,2.9,0.3,3.7,0.8l-0.7,2.9c-0.6-0.3-1.6-0.7-3-0.7c-1.5,0-2.3,0.8-2.3,1.6c0,1,0.8,1.5,2.8,2.4
			c2.7,1.1,3.8,2.7,3.8,4.8c0,2.8-2.1,5-6.2,5c-1.7,0-3.4-0.5-4.2-0.9L105.6,114.1z"/>
		<path class="st0" d="M128.9,101.4v16.3h-3.5v-16.3H128.9z"/>
		<path class="st0" d="M139,115.8l7-11.3v-0.1h-6.4v-3h10.8v2.2l-6.8,11.1v0.1h6.9v3H139V115.8z"/>
		<path class="st0" d="M169.4,110.8h-5.3v4.1h6v2.9h-9.5v-16.3h9.2v2.9h-5.6v3.5h5.3V110.8z"/>
	</g>
	<g>
		<path class="st0" d="M262,117.8v-2.2l1.9-1.9c3-3,4.7-4.8,4.7-6.8c0-1.3-0.7-2.3-2.4-2.3c-1.3,0-2.3,0.6-3.1,1.1l-0.9-2.6
			c1-0.8,2.7-1.4,4.7-1.4c3.5,0,5.2,2.2,5.2,4.8c0,2.7-1.9,4.9-4,7l-1.3,1.2v0h5.6v3H262z"/>
		<path class="st0" d="M296.5,114.1c0.9,0.5,2.3,0.9,3.7,0.9c1.6,0,2.5-0.7,2.5-1.8s-0.8-1.6-2.5-2.4c-2.6-1.1-4.1-2.7-4.1-4.8
			c0-2.7,2.2-4.9,5.9-4.9c1.6,0,2.9,0.3,3.7,0.8l-0.7,2.9c-0.6-0.3-1.6-0.7-3-0.7c-1.5,0-2.3,0.8-2.3,1.6c0,1,0.8,1.5,2.8,2.4
			c2.7,1.1,3.8,2.7,3.8,4.8c0,2.8-2.1,5-6.2,5c-1.7,0-3.4-0.5-4.2-0.9L296.5,114.1z"/>
		<path class="st0" d="M321.5,101.4v6.4h5.3v-6.4h3.5v16.3h-3.5v-6.8h-5.3v6.8H318v-16.3H321.5z"/>
		<path class="st0" d="M348.9,118c-4.5,0-6.9-3.7-6.9-8.3c0-4.8,2.7-8.5,7.2-8.5c4.7,0,7,3.9,7,8.2C356.1,115,353.2,118,348.9,118
			L348.9,118z M349.1,115.1c2.2,0,3.3-2.4,3.3-5.6c0-2.9-1.1-5.5-3.3-5.5c-2.2,0-3.4,2.5-3.3,5.5
			C345.7,112.7,346.9,115.1,349.1,115.1L349.1,115.1z"/>
		<path class="st0" d="M369.7,104.5h-4v-3.1h11.5v3.1h-4v13.3h-3.5V104.5z"/>
	</g>
</g>
</svg>
