<svg width="268" height="66" version="1.1" xmlns="http://www.w3.org/2000/svg" desc="Created with imagetracer.js version 1.2.6" ><path fill="rgb(0,0,0)" stroke="rgb(0,0,0)" stroke-width="1" opacity="0.7333333333333333" d="M 3.5 10 L 4 55.5 L 3 55.5 L 3.5 10 Z " /><path fill="rgb(0,0,0)" stroke="rgb(0,0,0)" stroke-width="1" opacity="0.7333333333333333" d="M 46.5 10 L 47 55.5 L 46 55.5 L 46.5 10 Z " /><path fill="rgb(0,0,0)" stroke="rgb(0,0,0)" stroke-width="1" opacity="0.7333333333333333" d="M 149.5 10 L 150 55.5 L 149 55.5 L 149.5 10 Z " /><path fill="rgb(0,0,0)" stroke="rgb(0,0,0)" stroke-width="1" opacity="0.7333333333333333" d="M 106.5 18 L 105.5 20 L 106.5 18 Z " /><path fill="rgb(0,0,0)" stroke="rgb(0,0,0)" stroke-width="1" opacity="0.7333333333333333" d="M 190.5 19 L 191 24.5 L 190 24.5 L 190.5 19 Z " /><path fill="rgb(0,0,0)" stroke="rgb(0,0,0)" stroke-width="1" opacity="0.7333333333333333" d="M 93.5 20 L 94 23.5 L 93 23.5 L 93.5 20 Z " /><path fill="rgb(0,0,0)" stroke="rgb(0,0,0)" stroke-width="1" opacity="0.7333333333333333" d="M 245.5 22 L 247 24.5 L 246 24.5 L 245.5 22 Z " /><path fill="rgb(0,0,0)" stroke="rgb(0,0,0)" stroke-width="1" opacity="0.7333333333333333" d="M 159.5 28 Q 162.3 29.3 160 30.5 L 159.5 56 L 159.5 28 Z " /><path fill="rgb(0,0,0)" stroke="rgb(0,0,0)" stroke-width="1" opacity="0.7333333333333333" d="M 122.5 33 L 124.5 36 L 122.5 33 Z " /><path fill="rgb(0,0,0)" stroke="rgb(0,0,0)" stroke-width="1" opacity="0.7333333333333333" d="M 219.5 33 L 220.5 35 L 219.5 33 Z " /><path fill="rgb(0,0,0)" stroke="rgb(0,0,0)" stroke-width="1" opacity="0.7333333333333333" d="M 173.5 36 L 174.5 38 L 173.5 36 Z " /><path fill="rgb(0,0,0)" stroke="rgb(0,0,0)" stroke-width="1" opacity="0.7333333333333333" d="M 241.5 37 L 242 39 L 250 39.5 L 241 40 L 241.5 37 Z " /><path fill="rgb(0,0,0)" stroke="rgb(0,0,0)" stroke-width="1" opacity="0.7333333333333333" d="M 212.5 42 L 213 45.5 L 212 45.5 L 212.5 42 Z " /><path fill="rgb(0,0,0)" stroke="rgb(0,0,0)" stroke-width="1" opacity="0.7333333333333333" d="M 239.5 48 L 253 48.5 L 239 49 L 238.5 51 L 238 49.5 L 239.5 48 Z " /><path fill="rgb(0,0,0)" stroke="rgb(0,0,0)" stroke-width="1" opacity="0.7333333333333333" d="M 55.5 52 L 57.5 55 L 55.5 52 Z " /><path fill="rgb(0,0,0)" stroke="rgb(0,0,0)" stroke-width="1" opacity="0.7333333333333333" d="M 192.5 52 L 194.5 55 L 192.5 52 Z " /><path fill="rgb(0,0,0)" stroke="rgb(0,0,0)" stroke-width="1" opacity="1" d="M 104.5 9 L 118.5 10 L 124 14.5 Q 127 17.8 126 24 L 115 24 L 115 20.5 Q 113.5 16.5 106.5 18 L 104 22.5 L 107.5 26 L 120.5 32 L 125 36.5 Q 127.6 39.4 127 45.5 Q 126.1 52.1 121.5 55 Q 115.4 58.4 104.5 57 Q 97.9 56.1 95 51.5 Q 92.1 47.6 93 41 L 104 41 L 104 45.5 Q 105.8 49.8 113.5 48 Q 116.8 47.3 116 42.5 L 112.5 39 L 99.5 33 L 95 28.5 Q 92.5 25 94 17.5 L 97.5 12 L 104.5 9 Z " /><path fill="rgb(0,0,0)" stroke="rgb(0,0,0)" stroke-width="1" opacity="1" d="M 201.5 9 L 215.5 10 L 221 14.5 L 223 24 L 212 24 L 212 20.5 Q 210.5 16.5 203.5 18 L 201 22.5 L 204.5 26 L 217.5 32 L 222 36.5 L 224 45.5 Q 223.1 52.1 218.5 55 Q 212.4 58.4 201.5 57 Q 194.9 56.1 192 51.5 Q 188.8 48 190 41 L 201 41 L 201 45.5 Q 202.8 49.8 210.5 48 Q 213.8 47.3 213 42.5 L 209.5 39 L 196.5 33 L 192 28.5 Q 189.5 25 191 17.5 L 194.5 12 L 201.5 9 Z " /><path fill="rgb(0,0,0)" stroke="rgb(0,0,0)" stroke-width="1" opacity="1" d="M 4 10 L 17.5 10 L 19 11.5 L 24 32 Q 27 33.3 26 29.5 L 30 14.5 L 32.5 10 L 45.5 10 L 46 10.5 L 46 56 L 36.5 56 L 36 55.5 L 36 26.5 L 35 26.5 L 30 46 L 20.5 46 L 20 43.5 L 14.5 26 L 14 56 L 4.5 56 L 4 55.5 L 4 10 Z " /><path fill="rgb(0,0,0)" stroke="rgb(0,0,0)" stroke-width="1" opacity="1" d="M 53 10 L 64 10 L 64 46.5 L 65.5 47 L 66.5 48 L 74.5 48 L 77 45.5 L 77 10 L 87.5 10 L 88 10.5 L 88 46.5 Q 86.8 52.3 82.5 55 Q 76.4 58.9 64.5 57 Q 57.1 55.9 54 50.5 L 53 47.5 L 53 10 Z " /><path fill="rgb(0,0,0)" stroke="rgb(0,0,0)" stroke-width="1" opacity="1" d="M 132 10 L 142.5 10 L 143 10.5 L 143 56 L 132.5 56 L 132 55.5 L 132 10 Z " /><path fill="rgb(0,0,0)" stroke="rgb(0,0,0)" stroke-width="1" opacity="1" d="M 150 10 L 159.5 10 L 161 11.5 L 174.5 38 L 175 10 L 184.5 10 L 185 10.5 L 185 56 L 174.5 56 L 173 54.5 L 159.5 28 L 159 56 L 150.5 56 L 150 55.5 L 150 10 Z " /><path fill="rgb(0,0,0)" stroke="rgb(0,0,0)" stroke-width="1" opacity="1" d="M 239 10 L 252.5 10 L 253 12.5 L 266 55.5 L 255.5 56 L 254 54.5 L 253 48 L 239.5 48 L 238 49.5 L 237 56 L 226.5 56 L 226 54.5 L 239 10 Z M 246 22 L 241 38 L 242 40 L 250 40 L 247 24 L 246 22 Z " /><path fill="rgb(0,0,0)" stroke="rgb(0,0,0)" stroke-width="1" opacity="0.19215686274509805" d="M 4.5 9 L 18 9.5 L 4.5 10 L 4.5 9 Z " /><path fill="rgb(0,0,0)" stroke="rgb(0,0,0)" stroke-width="1" opacity="0.19215686274509805" d="M 32.5 9 L 46 9.5 L 32.5 10 L 32.5 9 Z " /><path fill="rgb(0,0,0)" stroke="rgb(0,0,0)" stroke-width="1" opacity="0.19215686274509805" d="M 53.5 9 L 63.5 9 L 65 10.5 L 64.5 46 L 64 10 L 53.5 10 L 53 10.5 L 53 46.5 L 52 46.5 L 52 10.5 L 53.5 9 Z " /><path fill="rgb(0,0,0)" stroke="rgb(0,0,0)" stroke-width="1" opacity="0.19215686274509805" d="M 77.5 9 L 88 9.5 L 77 10 L 77 45.5 L 75.5 47 L 76 45.5 L 76 10.5 L 77.5 9 Z " /><path fill="rgb(0,0,0)" stroke="rgb(0,0,0)" stroke-width="1" opacity="0.19215686274509805" d="M 132.5 9 L 142.5 9 L 144 10.5 L 144 55.5 L 142.5 57 L 132.5 57 L 131 55.5 L 131 10.5 L 132.5 9 Z M 132 10 L 132 56 L 133 56 L 143 56 L 143 11 L 143 10 L 132 10 Z " /><path fill="rgb(0,0,0)" stroke="rgb(0,0,0)" stroke-width="1" opacity="0.19215686274509805" d="M 149.5 9 L 160 9.5 L 149.5 10 L 149.5 9 Z " /><path fill="rgb(0,0,0)" stroke="rgb(0,0,0)" stroke-width="1" opacity="0.19215686274509805" d="M 175.5 9 L 185 9.5 L 175 10 L 174.5 37 Q 171.8 35.8 174 34.5 L 174 10.5 L 175.5 9 Z " /><path fill="rgb(0,0,0)" stroke="rgb(0,0,0)" stroke-width="1" opacity="0.19215686274509805" d="M 239.5 9 L 253 9.5 L 239.5 10 L 238.5 11 L 239.5 9 Z " /><path fill="rgb(0,0,0)" stroke="rgb(0,0,0)" stroke-width="1" opacity="0.19215686274509805" d="M 120.5 10 L 121.5 12 L 120.5 10 Z " /><path fill="rgb(0,0,0)" stroke="rgb(0,0,0)" stroke-width="1" opacity="0.19215686274509805" d="M 217.5 10 L 218.5 12 L 217.5 10 Z " /><path fill="rgb(0,0,0)" stroke="rgb(0,0,0)" stroke-width="1" opacity="0.19215686274509805" d="M 194.5 11 L 192.5 14 L 194.5 11 Z " /><path fill="rgb(0,0,0)" stroke="rgb(0,0,0)" stroke-width="1" opacity="0.19215686274509805" d="M 123.5 13 L 124.5 15 L 123.5 13 Z " /><path fill="rgb(0,0,0)" stroke="rgb(0,0,0)" stroke-width="1" opacity="0.19215686274509805" d="M 220.5 13 L 221.5 15 L 220.5 13 Z " /><path fill="rgb(0,0,0)" stroke="rgb(0,0,0)" stroke-width="1" opacity="0.19215686274509805" d="M 107.5 18 L 113 18.5 L 107.5 19 L 107.5 18 Z " /><path fill="rgb(0,0,0)" stroke="rgb(0,0,0)" stroke-width="1" opacity="0.19215686274509805" d="M 204.5 18 Q 209.8 16.8 211 19.5 L 209.5 19 Q 203.5 20.3 204.5 18 Z " /><path fill="rgb(0,0,0)" stroke="rgb(0,0,0)" stroke-width="1" opacity="0.19215686274509805" d="M 114.5 20 L 115 24 L 126 24 L 126 20.5 L 127 20.5 Q 127.8 24.3 125.5 25 L 115.5 25 L 114 23.5 L 114.5 20 Z " /><path fill="rgb(0,0,0)" stroke="rgb(0,0,0)" stroke-width="1" opacity="0.19215686274509805" d="M 211.5 21 L 212 24 L 223 24.5 L 212.5 25 Q 210 24 211.5 21 Z " /><path fill="rgb(0,0,0)" stroke="rgb(0,0,0)" stroke-width="1" opacity="0.19215686274509805" d="M 105.5 23 L 106.5 25 L 105.5 23 Z " /><path fill="rgb(0,0,0)" stroke="rgb(0,0,0)" stroke-width="1" opacity="0.19215686274509805" d="M 202.5 23 L 203.5 25 L 202.5 23 Z " /><path fill="rgb(0,0,0)" stroke="rgb(0,0,0)" stroke-width="1" opacity="0.19215686274509805" d="M 245.5 23 L 247 25.5 L 245 24.5 L 245.5 23 Z " /><path fill="rgb(0,0,0)" stroke="rgb(0,0,0)" stroke-width="1" opacity="0.19215686274509805" d="M 191.5 28 L 192.5 30 L 191.5 28 Z " /><path fill="rgb(0,0,0)" stroke="rgb(0,0,0)" stroke-width="1" opacity="0.19215686274509805" d="M 95.5 29 L 98.5 33 L 95.5 29 Z " /><path fill="rgb(0,0,0)" stroke="rgb(0,0,0)" stroke-width="1" opacity="0.19215686274509805" d="M 194.5 31 L 195.5 33 L 194.5 31 Z " /><path fill="rgb(0,0,0)" stroke="rgb(0,0,0)" stroke-width="1" opacity="0.19215686274509805" d="M 100.5 33 L 101.5 35 L 100.5 33 Z " /><path fill="rgb(0,0,0)" stroke="rgb(0,0,0)" stroke-width="1" opacity="0.19215686274509805" d="M 221.5 35 L 222.5 37 L 221.5 35 Z " /><path fill="rgb(0,0,0)" stroke="rgb(0,0,0)" stroke-width="1" opacity="0.19215686274509805" d="M 93.5 40 L 103.5 40 L 105 41.5 L 104.5 45 L 104 41 L 93 41 L 93 44.5 L 92 44.5 Q 91.3 40.8 93.5 40 Z " /><path fill="rgb(0,0,0)" stroke="rgb(0,0,0)" stroke-width="1" opacity="0.19215686274509805" d="M 113.5 40 L 114.5 42 L 113.5 40 Z " /><path fill="rgb(0,0,0)" stroke="rgb(0,0,0)" stroke-width="1" opacity="0.19215686274509805" d="M 190.5 40 L 200.5 40 L 202 41.5 Q 201 46 203.5 47 L 210 47.5 L 203.5 48 Q 199.8 46.5 201 41 L 190 41 L 190 46.5 L 189 46.5 Q 187.8 41.3 190.5 40 Z " /><path fill="rgb(0,0,0)" stroke="rgb(0,0,0)" stroke-width="1" opacity="0.19215686274509805" d="M 210.5 40 L 211.5 42 L 210.5 40 Z " /><path fill="rgb(0,0,0)" stroke="rgb(0,0,0)" stroke-width="1" opacity="0.19215686274509805" d="M 66.5 47 L 74 47.5 L 66.5 48 L 66.5 47 Z " /><path fill="rgb(0,0,0)" stroke="rgb(0,0,0)" stroke-width="1" opacity="0.19215686274509805" d="M 107.5 47 L 113 47.5 L 107.5 48 L 107.5 47 Z " /><path fill="rgb(0,0,0)" stroke="rgb(0,0,0)" stroke-width="1" opacity="0.19215686274509805" d="M 86.5 51 L 85.5 53 L 86.5 51 Z " /><path fill="rgb(0,0,0)" stroke="rgb(0,0,0)" stroke-width="1" opacity="0.19215686274509805" d="M 94.5 51 L 95.5 53 L 94.5 51 Z " /><path fill="rgb(0,0,0)" stroke="rgb(0,0,0)" stroke-width="1" opacity="0.19215686274509805" d="M 125.5 51 L 122.5 55 L 125.5 51 Z " /><path fill="rgb(0,0,0)" stroke="rgb(0,0,0)" stroke-width="1" opacity="0.19215686274509805" d="M 221.5 52 L 219.5 55 L 221.5 52 Z " /><path fill="rgb(0,0,0)" stroke="rgb(0,0,0)" stroke-width="1" opacity="0.19215686274509805" d="M 97.5 54 L 98.5 56 L 97.5 54 Z " /><path fill="rgb(0,0,0)" stroke="rgb(0,0,0)" stroke-width="1" opacity="0.19215686274509805" d="M 225.5 54 L 226 56 L 236.5 56 L 237.5 55 L 236.5 57 L 226.5 57 L 225 55.5 L 225.5 54 Z " /><path fill="rgb(0,0,0)" stroke="rgb(0,0,0)" stroke-width="1" opacity="0.19215686274509805" d="M 4.5 56 L 14 56.5 L 4.5 57 L 4.5 56 Z " /><path fill="rgb(0,0,0)" stroke="rgb(0,0,0)" stroke-width="1" opacity="0.19215686274509805" d="M 36.5 56 L 46 56.5 L 36.5 57 L 36.5 56 Z " /><path fill="rgb(0,0,0)" stroke="rgb(0,0,0)" stroke-width="1" opacity="0.19215686274509805" d="M 150.5 56 L 159 56.5 L 150.5 57 L 150.5 56 Z " /><path fill="rgb(0,0,0)" stroke="rgb(0,0,0)" stroke-width="1" opacity="0.19215686274509805" d="M 174.5 56 L 185 56.5 L 174.5 57 L 174.5 56 Z " /><path fill="rgb(0,0,0)" stroke="rgb(0,0,0)" stroke-width="1" opacity="0.19215686274509805" d="M 255.5 56 L 266 56.5 L 255.5 57 L 255.5 56 Z " /><path fill="rgb(0,0,0)" stroke="rgb(0,0,0)" stroke-width="1" opacity="0" d="M 0 0 L 267.5 0 L 268 0.5 L 268 66 L 0.5 66 L 0 65.5 L 0 0 Z M 5 9 L 3 11 L 3 56 L 5 57 L 14 57 L 15 29 L 19 43 L 20 46 L 31 46 L 35 30 L 36 30 L 36 57 L 46 57 L 47 56 L 47 11 L 46 9 L 33 9 L 30 13 L 26 27 Q 27 31 24 30 L 19 11 L 18 9 L 5 9 Z M 54 9 L 52 11 L 52 47 L 54 52 L 61 57 L 80 57 L 84 55 L 88 50 L 88 10 L 88 9 L 78 9 L 76 11 L 76 46 L 75 47 L 66 47 L 65 47 L 65 11 L 64 9 L 54 9 Z M 102 9 L 96 12 L 93 19 Q 92 26 95 30 Q 102 37 113 40 Q 116 41 115 46 Q 113 49 107 47 L 104 40 L 94 40 L 92 42 L 94 52 L 101 57 L 119 57 L 123 55 L 127 50 L 127 39 L 126 37 Q 119 28 108 25 Q 105 25 105 21 L 107 19 L 114 19 Q 113 24 116 25 L 126 25 L 127 24 L 125 15 L 119 9 L 102 9 Z M 133 9 L 131 11 L 131 56 L 133 57 L 143 57 L 144 56 L 144 11 L 143 9 L 133 9 Z M 149 9 L 149 56 L 151 57 L 159 57 L 160 56 L 161 30 L 173 56 L 175 57 L 185 57 L 185 10 L 185 9 L 176 9 L 174 11 L 174 35 L 162 12 L 160 9 L 149 9 Z M 199 9 L 195 11 L 190 18 L 191 29 Q 198 37 210 40 Q 213 41 212 46 Q 210 49 204 47 L 201 40 L 191 40 L 189 42 Q 188 48 191 52 L 198 57 L 216 57 L 220 55 L 224 49 L 223 37 L 219 32 L 205 25 Q 202 25 202 21 Q 203 18 210 19 Q 212 20 211 24 L 213 25 L 223 25 L 222 15 L 216 9 L 199 9 Z M 240 9 L 236 17 L 225 56 L 227 57 L 237 57 L 239 52 L 240 49 L 252 49 L 254 56 L 256 57 L 266 57 L 265 50 L 253 11 L 253 9 L 240 9 Z " /><path fill="rgb(0,0,0)" stroke="rgb(0,0,0)" stroke-width="1" opacity="0" d="M 245.5 25 L 247 26.5 L 250 38.5 L 242 39 L 245.5 25 Z " /></svg>