<svg width="159" height="276" viewBox="0 0 159 276" fill="none" xmlns="http://www.w3.org/2000/svg">
<mask id="path-1-inside-1_1086_24421" fill="white">
<path d="M147.026 203.58C147.43 209.609 152.577 214.378 158.869 214.378C158.913 214.378 158.956 214.376 159 214.376V260.415C159 269.022 151.836 276 143 276H16C7.16352 276 0.000126996 269.022 0 260.415V214.376C6.23188 214.31 11.3103 209.567 11.7109 203.58H147.026ZM143 13C151.836 13 159 19.9776 159 28.585V191.257C158.956 191.256 158.913 191.256 158.869 191.256C152.395 191.256 147.132 196.304 147.003 202.58H11.7344C11.6058 196.347 6.41351 191.324 0 191.257V28.585C0.000124342 19.9776 7.16352 13 16 13H143Z"/>
</mask>
<path d="M147.026 203.58C147.43 209.609 152.577 214.378 158.869 214.378C158.913 214.378 158.956 214.376 159 214.376V260.415C159 269.022 151.836 276 143 276H16C7.16352 276 0.000126996 269.022 0 260.415V214.376C6.23188 214.31 11.3103 209.567 11.7109 203.58H147.026ZM143 13C151.836 13 159 19.9776 159 28.585V191.257C158.956 191.256 158.913 191.256 158.869 191.256C152.395 191.256 147.132 196.304 147.003 202.58H11.7344C11.6058 196.347 6.41351 191.324 0 191.257V28.585C0.000124342 19.9776 7.16352 13 16 13H143Z" fill="white"/>
<path d="M147.026 203.58L148.523 203.48L148.429 202.08H147.026V203.58ZM158.869 214.378V215.878H158.869L158.869 214.378ZM159 214.376H160.5V212.86L158.984 212.876L159 214.376ZM159 260.415L160.5 260.415V260.415H159ZM0 260.415H-1.5V260.415L0 260.415ZM0 214.376L-0.0158204 212.876L-1.5 212.892V214.376H0ZM11.7109 203.58V202.08H10.308L10.2143 203.48L11.7109 203.58ZM159 28.585H160.5V28.5849L159 28.585ZM159 191.257L158.984 192.757L160.5 192.773V191.257H159ZM158.869 191.256L158.869 189.756H158.869V191.256ZM147.003 202.58V204.08H148.472L148.503 202.611L147.003 202.58ZM11.7344 202.58L10.2347 202.611L10.265 204.08H11.7344V202.58ZM0 191.257H-1.5V192.741L-0.0158191 192.757L0 191.257ZM0 28.585L-1.5 28.5849V28.585H0ZM147.026 203.58L145.53 203.68C145.988 210.525 151.816 215.878 158.869 215.878V214.378V212.878C153.339 212.878 148.872 208.693 148.523 203.48L147.026 203.58ZM158.869 214.378L158.869 215.878C158.907 215.878 158.941 215.877 158.964 215.877C158.992 215.876 159.003 215.876 159.016 215.876L159 214.376L158.984 212.876C158.877 212.877 158.918 212.878 158.869 212.878L158.869 214.378ZM159 214.376H157.5V260.415H159H160.5V214.376H159ZM159 260.415L157.5 260.415C157.5 268.157 151.045 274.5 143 274.5V276V277.5C152.628 277.5 160.5 269.888 160.5 260.415L159 260.415ZM143 276V274.5H16V276V277.5H143V276ZM16 276V274.5C7.95456 274.5 1.50011 268.157 1.5 260.415L0 260.415L-1.5 260.415C-1.49986 269.888 6.37249 277.5 16 277.5V276ZM0 260.415H1.5V214.376H0H-1.5V260.415H0ZM0 214.376L0.0158204 215.876C7.00229 215.802 12.7527 210.477 13.2076 203.68L11.7109 203.58L10.2143 203.48C9.86783 208.657 5.46147 212.818 -0.0158204 212.876L0 214.376ZM11.7109 203.58V205.08H147.026V203.58V202.08H11.7109V203.58ZM143 13V14.5C151.045 14.5 157.5 20.8429 157.5 28.585L159 28.585L160.5 28.5849C160.5 19.1123 152.628 11.5 143 11.5V13ZM159 28.585H157.5V191.257H159H160.5V28.585H159ZM159 191.257L159.016 189.757C158.976 189.757 158.923 189.756 158.869 189.756L158.869 191.256L158.869 192.756C158.903 192.756 158.937 192.756 158.984 192.757L159 191.257ZM158.869 191.256V189.756C151.614 189.756 145.65 195.423 145.503 202.549L147.003 202.58L148.503 202.611C148.615 197.186 153.177 192.756 158.869 192.756V191.256ZM147.003 202.58V201.08H11.7344V202.58V204.08H147.003V202.58ZM11.7344 202.58L13.2341 202.549C13.088 195.471 7.2047 189.833 0.0158191 189.757L0 191.257L-0.0158191 192.757C5.62232 192.816 10.1235 197.222 10.2347 202.611L11.7344 202.58ZM0 191.257H1.5V28.585H0H-1.5V191.257H0ZM0 28.585L1.5 28.585C1.50011 20.8429 7.95456 14.5 16 14.5V13V11.5C6.37249 11.5 -1.49986 19.1123 -1.5 28.5849L0 28.585ZM16 13V14.5H143V13V11.5H16V13Z" fill="#C2D9FF" mask="url(#path-1-inside-1_1086_24421)"/>
<rect x="15" y="26.5" width="39" height="17" rx="8.5" fill="#E7F0FF"/>
<path d="M26.444 38.564C27.084 38.564 27.652 38.424 28.148 38.144C28.644 37.856 29.028 37.456 29.3 36.944C29.58 36.424 29.72 35.832 29.72 35.168C29.72 34.504 29.58 33.916 29.3 33.404C29.028 32.884 28.644 32.484 28.148 32.204C27.652 31.916 27.084 31.772 26.444 31.772L25.136 31.784V38.552L26.444 38.564ZM26.456 30.776C27.304 30.776 28.06 30.964 28.724 31.34C29.388 31.708 29.904 32.228 30.272 32.9C30.648 33.564 30.836 34.32 30.836 35.168C30.836 36.016 30.648 36.776 30.272 37.448C29.904 38.112 29.388 38.632 28.724 39.008C28.06 39.376 27.304 39.56 26.456 39.56H24.008V30.776H26.456ZM37.7065 34.52V35.648H32.5345V34.52H37.7065ZM39.9436 39.536L43.3876 31.784L39.3076 31.796V30.788H44.5036L44.6236 31.784L41.1796 39.536H39.9436Z" fill="#003486"/>
<path d="M141.894 29.7657C141.554 29.4038 141.149 29.1166 140.704 28.9208C140.259 28.7249 139.782 28.624 139.301 28.624C138.819 28.624 138.342 28.7249 137.897 28.9208C137.452 29.1166 137.048 29.4038 136.707 29.7657L136.001 30.5166L135.294 29.7657C134.606 29.035 133.673 28.6244 132.701 28.6244C131.728 28.6244 130.795 29.035 130.107 29.7657C129.42 30.4965 129.033 31.4877 129.033 32.5211C129.033 33.5546 129.42 34.5458 130.107 35.2766L136.001 41.5382L141.894 35.2766C142.235 34.9148 142.505 34.4852 142.689 34.0124C142.874 33.5397 142.969 33.0329 142.969 32.5211C142.969 32.0094 142.874 31.5026 142.689 31.0299C142.505 30.5571 142.235 30.1275 141.894 29.7657Z" stroke="#003486" stroke-width="1.5" stroke-linecap="round" stroke-linejoin="round"/>
<path d="M102.582 59.1208C107.69 63.9227 111.037 69.5266 112.953 76.2682C112.998 76.4268 113.043 76.5853 113.089 76.7487C113.812 79.4647 114.011 82.1641 113.999 84.9665C113.999 85.2079 113.999 85.2079 113.998 85.4541C113.987 87.8665 113.836 90.099 113.218 92.4412C113.139 92.7924 113.061 93.1438 112.983 93.4953C111.681 99.1547 108.897 104.232 104.962 108.481C104.844 108.609 104.727 108.737 104.606 108.869C102.712 110.906 100.661 112.59 98.3573 114.143C98.1021 114.315 97.847 114.488 97.5842 114.665C90.4879 119.235 81.5375 120.943 73.2796 119.273C72.3568 119.071 71.4393 118.853 70.5226 118.625C70.2335 118.557 69.9443 118.489 69.6464 118.419C66.1227 117.471 62.5816 115.623 59.6719 113.435C59.4757 113.288 59.2796 113.141 59.0775 112.99C51.1738 106.854 46.6339 98.4723 45.1722 88.6302C45.1051 88.0117 45.0683 87.4016 45.0469 86.7799C45.0347 86.512 45.0226 86.2442 45.01 85.9681C44.7765 76.3253 48.6338 67.5426 55.19 60.5965C55.3369 60.4372 55.4837 60.2778 55.6351 60.1137C60.6724 54.8334 67.8528 51.5489 75.0045 50.4534C75.1942 50.4227 75.384 50.392 75.5795 50.3603C85.3336 49.0903 95.3733 52.5323 102.582 59.1208Z" fill="#FCFCFC"/>
<path d="M88.7478 63.3556C90.628 65.1094 91.4836 67.3683 91.5904 69.8996C91.5245 71.8929 90.9502 73.505 89.5503 74.9481C86.0902 77.7538 81.2196 78.6563 76.9977 79.6797C75.8474 79.9602 74.718 80.2898 73.5893 80.6472C73.9856 82.4153 74.3489 83.8518 75.9482 84.8931C77.6158 85.6873 79.5292 85.5884 81.2409 84.9816C82.2696 84.5169 82.7701 84.0484 83.2606 83.0061C83.4163 82.4612 83.572 81.9163 83.7324 81.3548C86.2234 81.3548 88.7143 81.3548 91.2808 81.3548C90.9491 84.0085 89.9946 85.9519 87.9434 87.6786C86.4262 88.8202 84.8229 89.4977 83.0248 90.0827C82.8511 90.141 82.6775 90.1994 82.4986 90.2596C79.3288 91.1425 75.5369 90.6985 72.6227 89.2469C69.6224 87.4434 67.8991 85.1254 67.0287 81.7234C66.9307 81.2871 66.837 80.8497 66.7486 80.4113C66.708 80.2353 66.6674 80.0594 66.6256 79.8781C66.3934 78.549 66.4551 77.187 66.4537 75.841C66.4535 75.6813 66.4532 75.5216 66.453 75.3571C66.4553 73.0364 66.5276 70.8512 67.2203 68.617C67.3148 68.2954 67.3148 68.2954 67.4111 67.9674C68.31 65.3504 70.3012 63.3211 72.6725 61.9624C77.6736 59.5304 84.2846 60.0101 88.7478 63.3556Z" fill="#FCB508"/>
<path d="M83.0239 66.2574C84.053 67.1758 84.6281 67.9939 84.734 69.3976C84.6479 70.6674 84.2664 71.3601 83.4072 72.2872C81.1325 74.0096 76.1788 75.6928 73.3525 75.6928C73.3316 74.8771 73.3193 74.0614 73.3083 73.2455C73.3023 73.0178 73.2964 72.79 73.2903 72.5554C73.2719 70.7253 73.4473 68.852 74.5909 67.3484C76.7479 65.2894 80.3666 64.7502 83.0239 66.2574Z" fill="#FDFCFA"/>
<path d="M75.477 95.0363C75.7105 94.8806 75.9441 94.725 76.1847 94.5645C77.3598 94.4155 78.6713 94.2815 79.7589 94.8124C80.2548 95.2235 80.6139 95.6388 80.9024 96.2158C80.9228 96.801 80.9297 97.3795 80.9254 97.9646C80.9251 98.1367 80.9248 98.3089 80.9244 98.4862C80.9231 99.0366 80.9201 99.587 80.9171 100.137C80.916 100.51 80.9149 100.883 80.9139 101.256C80.9113 102.171 80.9072 103.085 80.9024 104C80.2018 104 79.5012 104 78.7794 104C78.776 103.788 78.7725 103.576 78.769 103.358C78.7546 102.573 78.7371 101.788 78.7175 101.002C78.7097 100.662 78.703 100.322 78.6977 99.9825C78.6898 99.494 78.6775 99.0058 78.6642 98.5175C78.6581 98.2235 78.6519 97.9295 78.6455 97.6266C78.595 97.2785 78.595 97.2785 78.5435 96.9234C77.8746 96.372 77.8746 96.372 77.0987 96.5106C76.8749 96.569 76.6511 96.6274 76.4205 96.6875C76.0913 97.3459 76.1332 97.9146 76.11 98.6502C76.1001 98.9467 76.0903 99.2431 76.0801 99.5486C76.0708 99.8596 76.0615 100.171 76.052 100.491C76.0418 100.807 76.0315 101.123 76.0211 101.439C75.996 102.214 75.972 102.989 75.9488 103.764C75.2482 103.764 74.5476 103.764 73.8258 103.764C73.8224 103.559 73.8189 103.355 73.8154 103.144C73.801 102.385 73.7835 101.626 73.7639 100.867C73.756 100.539 73.7494 100.21 73.7441 99.8817C73.7362 99.4097 73.7235 98.9378 73.7106 98.4659C73.7044 98.1818 73.6983 97.8977 73.6919 97.6049C73.6582 97.38 73.6246 97.1551 73.5899 96.9234C72.9206 96.369 72.9206 96.369 72.1451 96.5254C71.495 96.6183 71.495 96.6183 71.231 96.9234C71.1936 97.4291 71.1718 97.936 71.1564 98.4429C71.1465 98.7507 71.1366 99.0586 71.1265 99.3758C71.1171 99.7034 71.1077 100.031 71.0984 100.359C71.0882 100.687 71.0779 101.015 71.0675 101.344C71.0424 102.151 71.0183 102.957 70.9952 103.764C70.2946 103.764 69.594 103.764 68.8722 103.764C68.8429 102.749 68.8216 101.733 68.8074 100.718C68.8015 100.373 68.7934 100.028 68.7832 99.6826C68.7688 99.1848 68.7622 98.6874 68.757 98.1895C68.7508 97.8905 68.7446 97.5916 68.7383 97.2836C68.9154 96.183 69.2706 95.8181 70.0516 95.0363C71.7038 94.1164 73.7724 94.4244 75.477 95.0363Z" fill="#29374A"/>
<path d="M66.7479 95.0364C67.4718 95.6547 67.8576 96.0896 68.0398 97.035C68.1039 98.1812 68.1039 98.1812 67.9274 98.8106C67.0516 99.741 66.1992 99.9461 64.964 100.167C64.8085 100.196 64.653 100.226 64.4927 100.256C63.7322 100.395 63.0424 100.462 62.2661 100.462C62.408 100.938 62.5664 101.41 62.7378 101.877C63.4671 102.242 64.0575 102.182 64.8608 102.113C65.0068 101.957 65.1527 101.802 65.3031 101.641C65.9113 101.069 66.1134 101.105 66.9248 101.11C67.2592 101.126 67.5936 101.144 67.9274 101.169C67.6264 102.346 67.1994 102.976 66.2761 103.764C64.9924 104.192 63.2923 104.3 62.0108 103.814C61.6469 103.573 61.6469 103.573 61.0866 103.057C60.9456 102.935 60.8045 102.813 60.6591 102.688C59.9286 101.804 60.0997 100.642 60.0989 99.5624C60.096 99.375 60.0931 99.1875 60.0901 98.9944C60.0874 97.9008 60.1597 96.9956 60.6149 95.9799C62.4425 94.1929 64.4724 93.7844 66.7479 95.0364Z" fill="#2C3A4D"/>
<path d="M87.8399 94.742C88.645 95.1779 89.0688 95.6105 89.3944 96.4513C89.5057 97.3822 89.4926 98.3156 89.4976 99.2524C89.5053 99.5063 89.5131 99.7602 89.5211 100.022C89.5353 102.114 89.5353 102.114 88.8719 102.97C87.5032 104.133 86.266 104.099 84.5191 104.077C83.241 103.951 82.737 103.475 81.846 102.584C81.655 101.336 81.6167 100.311 82.362 99.2672C83.4687 98.5048 84.4882 98.2602 85.8118 98.073C86.0858 98.0335 86.3598 97.994 86.6421 97.9532C86.9536 97.9104 86.9536 97.9104 87.2714 97.8666C87.1157 97.3996 86.96 96.9325 86.7996 96.4513C86.0844 96.3973 85.3899 96.3641 84.6766 96.4513C84.4346 96.7611 84.1984 97.0756 83.969 97.3948C83.3205 97.4834 82.7402 97.438 82.0819 97.3948C82.1688 95.8888 82.1688 95.8888 82.8928 95.1834C84.3209 94.2778 86.2247 94.2368 87.8399 94.742Z" fill="#2D3C4E"/>
<path d="M96.2492 92.418C97.067 92.4295 97.067 92.4295 97.8848 92.441C97.8848 93.1416 97.8848 93.8422 97.8848 94.564C98.4297 94.564 98.9746 94.564 99.536 94.564C99.536 95.1089 99.536 95.6538 99.536 96.2152C98.9911 96.2152 98.4462 96.2152 97.8848 96.2152C97.9626 98.0834 98.0405 99.9516 98.1207 101.876C98.6656 101.954 99.2105 102.032 99.7719 102.112C99.7719 102.735 99.7719 103.358 99.7719 103.999C97.1961 104.184 97.1961 104.184 96.1894 103.454C95.4295 102.327 95.4915 101.299 95.4946 99.9875C95.4943 99.6757 95.4943 99.6757 95.4939 99.3576C95.4937 98.9186 95.4942 98.4797 95.4952 98.0407C95.4964 97.3661 95.4952 96.6916 95.4937 96.0171C95.4938 95.5911 95.4941 95.1651 95.4946 94.7391C95.4941 94.5361 95.4936 94.3332 95.4931 94.1241C95.4998 92.4534 95.4998 92.4534 96.2492 92.418Z" fill="#323E50"/>
<path d="M94.0514 94.5497C94.2399 94.5518 94.4285 94.554 94.6227 94.5562C94.765 94.5589 94.9073 94.5616 95.0539 94.5645C95.0539 95.1872 95.0539 95.8099 95.0539 96.4515C94.3398 96.5091 94.3398 96.5091 93.6257 96.5667C93.0736 96.6577 93.0736 96.6577 92.6951 97.3951C92.6081 98.0807 92.6081 98.0807 92.5974 98.8574C92.5837 99.285 92.5837 99.285 92.5697 99.7212C92.5588 100.168 92.5588 100.168 92.5476 100.624C92.534 101.075 92.534 101.075 92.52 101.535C92.4977 102.278 92.4775 103.021 92.4592 103.764C91.7586 103.764 91.058 103.764 90.3362 103.764C90.3186 102.778 90.3058 101.792 90.2973 100.805C90.2938 100.47 90.289 100.135 90.2828 99.7999C90.2742 99.3167 90.2702 98.8338 90.2671 98.3506C90.2634 98.0603 90.2597 97.77 90.2559 97.4709C90.3642 96.4147 90.7195 95.801 91.5009 95.0952C92.3325 94.5912 93.0916 94.5356 94.0514 94.5497Z" fill="#283648"/>
<path d="M85.7233 96.1713C86.0074 96.1663 86.0074 96.1663 86.2973 96.1611C86.7995 96.2155 86.7995 96.2155 87.2713 96.6873C87.3008 97.3065 87.3008 97.3065 87.2713 97.8667C86.4434 98.2281 85.6866 98.4281 84.7945 98.5596C83.8327 98.7242 83.0966 98.8947 82.3177 99.5179C82.0099 100.133 82.0505 100.6 82.0523 101.287C82.0517 101.518 82.0511 101.749 82.0504 101.987C82.0418 102.583 82.0418 102.583 82.3177 103.056C81.8506 103.368 81.3836 103.679 80.9023 104C80.9023 101.587 80.9023 99.1735 80.9023 96.6873C81.2916 96.6094 81.6808 96.5316 82.0818 96.4514C82.0818 96.7628 82.0818 97.0741 82.0818 97.3949C82.7045 97.3949 83.3273 97.3949 83.9689 97.3949C84.0418 97.2441 84.1148 97.0933 84.19 96.9379C84.6072 96.1281 84.8336 96.1784 85.7233 96.1713Z" fill="#EAEBEC"/>
<path d="M87.5074 99.5176C87.6498 101.227 87.6498 101.227 87.0357 101.994C86.0782 102.473 85.5047 102.453 84.4409 102.348C83.9691 101.876 83.9691 101.876 83.9102 101.169C83.9691 100.461 83.9691 100.461 84.4409 99.9894C84.9781 99.8401 84.9781 99.8401 85.6056 99.724C85.8121 99.6844 86.0185 99.6449 86.2312 99.6042C86.7998 99.5176 86.7998 99.5176 87.5074 99.5176Z" fill="#F4F4F5"/>
<path d="M64.5889 96.1131C65.2103 96.238 65.4256 96.4225 65.8052 96.923C65.8789 97.5275 65.8789 97.5275 65.8052 98.1024C65.1517 98.7559 64.6811 98.6681 63.7707 98.7216C63.4903 98.7393 63.21 98.7569 62.9211 98.7751C62.7052 98.7866 62.4893 98.7982 62.2669 98.8101C62.2202 98.0007 62.1947 97.3466 62.488 96.5839C63.1746 96.0638 63.7466 96.1117 64.5889 96.1131Z" fill="#F3F3F4"/>
<path d="M67.9282 101.169C67.6273 102.345 67.2003 102.975 66.277 103.763C65.5341 104.011 65.006 104.023 64.2278 104.014C63.9933 104.012 63.7589 104.01 63.5173 104.008C63.2487 104.004 63.2487 104.004 62.9746 103.999C62.9746 103.922 62.9746 103.844 62.9746 103.763C63.5974 103.763 64.2201 103.763 64.8617 103.763C65.0225 103.317 65.0225 103.317 65.0976 102.82C64.9419 102.664 64.7862 102.509 64.6258 102.348C65.6297 101.053 66.3984 101.019 67.9282 101.169Z" fill="#253144"/>
<path d="M87.0348 98.1025C87.0348 98.4139 87.0348 98.7253 87.0348 99.0461C87.1905 99.1239 87.3462 99.2018 87.5066 99.282C86.6648 99.8432 85.983 99.9291 85.0003 100.093C84.382 100.205 84.382 100.205 83.7324 100.697C83.969 100.169 84.1676 99.789 84.5875 99.3852C84.9934 99.0391 84.9934 99.0391 84.9119 98.3384C85.6557 98.1731 86.2628 98.1025 87.0348 98.1025Z" fill="#243245"/>
<path d="M84.6755 98.5745C84.2038 99.2821 84.2038 99.2821 83.3782 99.5475C82.5299 99.8894 82.5299 99.8894 82.3397 100.507C82.2248 101.042 82.1368 101.568 82.0808 102.113C82.0029 102.113 81.9251 102.113 81.8449 102.113C81.6597 100.224 81.6597 100.224 82.4051 99.2821C83.2456 98.6417 83.6337 98.547 84.6755 98.5745Z" fill="#273444"/>
<path d="M83.7317 81.5908C84.6658 81.5908 85.5999 81.5908 86.5624 81.5908C86.5624 81.6687 86.5624 81.7465 86.5624 81.8267C85.7061 81.8267 84.8498 81.8267 83.9676 81.8267C83.9482 82.1186 83.9287 82.4105 83.9086 82.7113C83.8179 83.4753 83.7553 83.6853 83.2452 84.3035C83.0944 84.4203 82.9436 84.537 82.7882 84.6573C82.6325 84.5795 82.4768 84.5017 82.3164 84.4215C82.4624 84.2171 82.6083 84.0128 82.7587 83.8023C83.2238 83.0636 83.4934 82.425 83.7317 81.5908Z" fill="#F9A70B"/>
<path d="M65.8048 98.574C65.8048 98.7297 65.8048 98.8854 65.8048 99.0458C64.7067 99.2435 63.8303 99.2855 62.7383 99.0458C62.7383 98.9679 62.7383 98.8901 62.7383 98.8099C63.1605 98.7245 63.5833 98.6414 64.0062 98.5593C64.3592 98.4895 64.3592 98.4895 64.7194 98.4183C65.333 98.3381 65.333 98.3381 65.8048 98.574Z" fill="#222D41"/>
<path d="M68.1642 66.2578C68.2421 66.2578 68.3199 66.2578 68.4001 66.2578C68.5091 67.4201 68.1236 68.2646 67.6925 69.3243C67.5368 69.2465 67.3811 69.1687 67.2207 69.0885C67.3332 68.705 67.4464 68.3217 67.5598 67.9385C67.6227 67.725 67.6857 67.5116 67.7505 67.2917C67.9284 66.7296 67.9284 66.7296 68.1642 66.2578Z" fill="#FBB525"/>
<path d="M86.7988 99.5176C87.0323 99.5176 87.2659 99.5176 87.5065 99.5176C87.5065 100.14 87.5065 100.763 87.5065 101.405C87.2729 101.249 87.0394 101.093 86.7988 100.933C86.7546 100.196 86.7546 100.196 86.7988 99.5176Z" fill="#CACED3"/>
<path d="M82.3167 99.2822C82.5502 99.3601 82.7837 99.4379 83.0243 99.5181C82.8565 99.7006 82.8565 99.7006 82.6852 99.8867C82.2157 100.619 82.1632 101.256 82.0808 102.113C82.0029 102.113 81.9251 102.113 81.8449 102.113C81.8321 101.774 81.823 101.435 81.8154 101.096C81.8099 100.907 81.8045 100.718 81.7988 100.523C81.8449 99.9899 81.8449 99.9899 82.3167 99.2822Z" fill="#1B2432"/>
<path d="M88.9221 74.2783C89.1556 74.434 89.3891 74.5897 89.6297 74.7501C89.2405 75.0615 88.8513 75.3728 88.4503 75.6936C88.2946 75.6158 88.1389 75.538 87.9785 75.4578C87.9785 75.3021 87.9785 75.1464 87.9785 74.986C88.212 74.8303 88.4456 74.6746 88.6862 74.5142C88.764 74.4364 88.8419 74.3585 88.9221 74.2783Z" fill="#F7A811"/>
<path d="M27.208 128.072V142.264H25.624V128.072H27.208ZM19.688 129.128C20.392 129.128 21.016 129.336 21.56 129.752C22.1147 130.157 22.5467 130.739 22.856 131.496C23.1653 132.243 23.32 133.112 23.32 134.104C23.32 135.107 23.1653 135.987 22.856 136.744C22.5467 137.501 22.1147 138.088 21.56 138.504C21.016 138.909 20.392 139.112 19.688 139.112C18.984 139.112 18.3547 138.909 17.8 138.504C17.2453 138.088 16.8133 137.501 16.504 136.744C16.1947 135.987 16.04 135.107 16.04 134.104C16.04 133.112 16.1947 132.243 16.504 131.496C16.8133 130.739 17.2453 130.157 17.8 129.752C18.3547 129.336 18.984 129.128 19.688 129.128ZM19.688 130.552C19.048 130.552 18.5307 130.872 18.136 131.512C17.752 132.152 17.56 133.016 17.56 134.104C17.56 135.203 17.752 136.077 18.136 136.728C18.5307 137.368 19.048 137.688 19.688 137.688C20.3173 137.688 20.8293 137.368 21.224 136.728C21.6187 136.077 21.816 135.203 21.816 134.104C21.816 133.016 21.6187 132.152 21.224 131.512C20.8293 130.872 20.3173 130.552 19.688 130.552ZM36.6804 129.464V138.712H30.0884V129.464H36.6804ZM31.6244 130.728V137.448H35.1444V130.728H31.6244ZM40.5364 128.088V133.624H42.7444V134.936H40.5364V142.248H38.9524V128.088H40.5364ZM54.8088 129.224V130.488H46.7288V132.36H54.5048V133.608H46.7288V135.576H54.9528V136.84H45.1448V129.224H54.8088ZM56.3768 139.208V140.488H43.5448V139.208H56.3768Z" fill="#1D2939"/>
<path d="M23.92 156.853C24.5733 157.226 25.1067 157.74 25.52 158.393C25.9333 159.033 26.14 159.666 26.14 160.293C26.14 161.106 25.92 161.84 25.48 162.493C25.0533 163.133 24.4467 163.633 23.66 163.993C22.8867 164.353 22.0067 164.533 21.02 164.533C20.0333 164.533 19.1467 164.346 18.36 163.973C17.5867 163.586 16.98 163.06 16.54 162.393C16.1133 161.713 15.9 160.94 15.9 160.073H18.48C18.48 160.713 18.7133 161.24 19.18 161.653C19.66 162.053 20.2733 162.253 21.02 162.253C21.7933 162.253 22.4267 162.053 22.92 161.653C23.4133 161.24 23.66 160.713 23.66 160.073C23.66 159.446 23.4133 158.933 22.92 158.533C22.44 158.12 21.82 157.913 21.06 157.913H20.04V155.813H21.08C21.7733 155.813 22.34 155.633 22.78 155.273C23.22 154.9 23.44 154.426 23.44 153.853C23.44 153.293 23.2267 152.84 22.8 152.493C22.3733 152.133 21.8267 151.953 21.16 151.953C20.5067 151.953 19.9733 152.133 19.56 152.493C19.1467 152.853 18.94 153.313 18.94 153.873H16.36C16.36 153.06 16.56 152.333 16.96 151.693C17.3733 151.053 17.94 150.56 18.66 150.213C19.3933 149.853 20.2267 149.673 21.16 149.673C22.08 149.673 22.9 149.846 23.62 150.193C24.34 150.526 24.9 150.993 25.3 151.593C25.7 152.193 25.9 152.88 25.9 153.653C25.9 154.226 25.7133 154.813 25.34 155.413C24.98 156.013 24.5067 156.493 23.92 156.853ZM29.7117 167.473H27.8117L28.6517 162.273H31.2717L29.7117 167.473ZM40.1836 162.293C40.8103 162.293 41.3569 162.08 41.8236 161.653C42.2903 161.226 42.6503 160.62 42.9036 159.833C43.1569 159.046 43.2836 158.133 43.2836 157.093C43.2836 156.053 43.1569 155.14 42.9036 154.353C42.6503 153.566 42.2903 152.96 41.8236 152.533C41.3569 152.106 40.8103 151.893 40.1836 151.893C39.5569 151.893 39.0036 152.106 38.5236 152.533C38.0569 152.96 37.6903 153.566 37.4236 154.353C37.1703 155.14 37.0436 156.053 37.0436 157.093C37.0436 158.133 37.1703 159.046 37.4236 159.833C37.6903 160.62 38.0569 161.226 38.5236 161.653C39.0036 162.08 39.5569 162.293 40.1836 162.293ZM40.1836 164.553C39.0769 164.553 38.0903 164.24 37.2236 163.613C36.3569 162.973 35.6769 162.086 35.1836 160.953C34.7036 159.82 34.4636 158.533 34.4636 157.093C34.4636 155.653 34.7036 154.366 35.1836 153.233C35.6769 152.1 36.3569 151.22 37.2236 150.593C38.0903 149.953 39.0769 149.633 40.1836 149.633C41.2769 149.633 42.2569 149.953 43.1236 150.593C43.9903 151.22 44.6636 152.1 45.1436 153.233C45.6236 154.366 45.8636 155.653 45.8636 157.093C45.8636 158.533 45.6236 159.82 45.1436 160.953C44.6636 162.086 43.9903 162.973 43.1236 163.613C42.2569 164.24 41.2769 164.553 40.1836 164.553ZM53.5477 162.293C54.1743 162.293 54.721 162.08 55.1877 161.653C55.6543 161.226 56.0143 160.62 56.2677 159.833C56.521 159.046 56.6477 158.133 56.6477 157.093C56.6477 156.053 56.521 155.14 56.2677 154.353C56.0143 153.566 55.6543 152.96 55.1877 152.533C54.721 152.106 54.1743 151.893 53.5477 151.893C52.921 151.893 52.3677 152.106 51.8877 152.533C51.421 152.96 51.0543 153.566 50.7877 154.353C50.5343 155.14 50.4077 156.053 50.4077 157.093C50.4077 158.133 50.5343 159.046 50.7877 159.833C51.0543 160.62 51.421 161.226 51.8877 161.653C52.3677 162.08 52.921 162.293 53.5477 162.293ZM53.5477 164.553C52.441 164.553 51.4543 164.24 50.5877 163.613C49.721 162.973 49.041 162.086 48.5477 160.953C48.0677 159.82 47.8277 158.533 47.8277 157.093C47.8277 155.653 48.0677 154.366 48.5477 153.233C49.041 152.1 49.721 151.22 50.5877 150.593C51.4543 149.953 52.441 149.633 53.5477 149.633C54.641 149.633 55.621 149.953 56.4877 150.593C57.3543 151.22 58.0277 152.1 58.5077 153.233C58.9877 154.366 59.2277 155.653 59.2277 157.093C59.2277 158.533 58.9877 159.82 58.5077 160.953C58.0277 162.086 57.3543 162.973 56.4877 163.613C55.621 164.24 54.641 164.553 53.5477 164.553ZM66.9117 162.293C67.5384 162.293 68.0851 162.08 68.5517 161.653C69.0184 161.226 69.3784 160.62 69.6317 159.833C69.8851 159.046 70.0117 158.133 70.0117 157.093C70.0117 156.053 69.8851 155.14 69.6317 154.353C69.3784 153.566 69.0184 152.96 68.5517 152.533C68.0851 152.106 67.5384 151.893 66.9117 151.893C66.2851 151.893 65.7317 152.106 65.2517 152.533C64.7851 152.96 64.4184 153.566 64.1517 154.353C63.8984 155.14 63.7717 156.053 63.7717 157.093C63.7717 158.133 63.8984 159.046 64.1517 159.833C64.4184 160.62 64.7851 161.226 65.2517 161.653C65.7317 162.08 66.2851 162.293 66.9117 162.293ZM66.9117 164.553C65.8051 164.553 64.8184 164.24 63.9517 163.613C63.0851 162.973 62.4051 162.086 61.9117 160.953C61.4317 159.82 61.1917 158.533 61.1917 157.093C61.1917 155.653 61.4317 154.366 61.9117 153.233C62.4051 152.1 63.0851 151.22 63.9517 150.593C64.8184 149.953 65.8051 149.633 66.9117 149.633C68.0051 149.633 68.9851 149.953 69.8517 150.593C70.7184 151.22 71.3917 152.1 71.8717 153.233C72.3517 154.366 72.5917 155.653 72.5917 157.093C72.5917 158.533 72.3517 159.82 71.8717 160.953C71.3917 162.086 70.7184 162.973 69.8517 163.613C68.9851 164.24 68.0051 164.553 66.9117 164.553ZM93.2652 148.033V151.813H95.6252V153.973H93.2652V157.713H90.5852V148.033H93.2652ZM93.2652 158.433V163.033H84.0052V163.973H93.7852V165.933H81.3852V161.233H90.6252V160.353H81.3452V158.433H93.2652ZM83.0452 149.333V147.893H85.7052V149.333H89.6652V151.333H79.0852V149.333H83.0452ZM84.3852 151.713C85.7185 151.713 86.7918 151.98 87.6052 152.513C88.4185 153.046 88.8252 153.766 88.8252 154.673C88.8252 155.58 88.4185 156.293 87.6052 156.813C86.8052 157.333 85.7318 157.593 84.3852 157.593C83.0385 157.593 81.9585 157.333 81.1452 156.813C80.3452 156.293 79.9452 155.58 79.9452 154.673C79.9452 153.766 80.3452 153.046 81.1452 152.513C81.9585 151.98 83.0385 151.713 84.3852 151.713ZM84.3852 153.593C83.1318 153.593 82.5052 153.953 82.5052 154.673C82.5052 155.033 82.6652 155.3 82.9852 155.473C83.3185 155.646 83.7852 155.733 84.3852 155.733C84.9718 155.733 85.4252 155.646 85.7452 155.473C86.0785 155.286 86.2452 155.02 86.2452 154.673C86.2452 154.313 86.0852 154.046 85.7652 153.873C85.4452 153.686 84.9852 153.593 84.3852 153.593ZM111.726 148.053V160.953H109.066V148.053H111.726ZM102.366 159.673V163.613H112.166V165.733H99.7056V159.673H102.366ZM101.906 149.173C102.826 149.173 103.659 149.373 104.406 149.773C105.152 150.16 105.739 150.7 106.166 151.393C106.606 152.086 106.826 152.873 106.826 153.753C106.826 154.62 106.606 155.406 106.166 156.113C105.739 156.806 105.152 157.353 104.406 157.753C103.659 158.14 102.826 158.333 101.906 158.333C100.999 158.333 100.172 158.133 99.4256 157.733C98.679 157.333 98.0856 156.786 97.6456 156.093C97.219 155.4 97.0056 154.62 97.0056 153.753C97.0056 152.873 97.219 152.086 97.6456 151.393C98.0856 150.7 98.679 150.16 99.4256 149.773C100.172 149.373 100.999 149.173 101.906 149.173ZM101.906 151.473C101.239 151.473 100.686 151.68 100.246 152.093C99.819 152.493 99.6056 153.046 99.6056 153.753C99.6056 154.446 99.819 155 100.246 155.413C100.686 155.813 101.239 156.013 101.906 156.013C102.572 156.013 103.126 155.813 103.566 155.413C104.006 155 104.226 154.446 104.226 153.753C104.226 153.046 104.006 152.493 103.566 152.093C103.126 151.68 102.572 151.473 101.906 151.473Z" fill="#1D2939"/>
<path d="M15.984 178.563L16.272 173.979H20.832V174.975H17.364L17.22 177.291C17.652 177.075 18.084 176.967 18.516 176.967C19.1 176.967 19.62 177.091 20.076 177.339C20.54 177.587 20.9 177.931 21.156 178.371C21.412 178.811 21.54 179.311 21.54 179.871C21.54 180.439 21.412 180.947 21.156 181.395C20.9 181.843 20.54 182.191 20.076 182.439C19.62 182.687 19.1 182.811 18.516 182.811C18.06 182.811 17.628 182.715 17.22 182.523C16.82 182.331 16.48 182.063 16.2 181.719C15.92 181.375 15.728 180.987 15.624 180.555L16.728 180.303C16.824 180.727 17.036 181.075 17.364 181.347C17.7 181.611 18.084 181.743 18.516 181.743C19.068 181.743 19.52 181.567 19.872 181.215C20.224 180.863 20.4 180.415 20.4 179.871C20.4 179.335 20.224 178.895 19.872 178.551C19.52 178.207 19.068 178.035 18.516 178.035C18.284 178.035 18.036 178.099 17.772 178.227C17.516 178.355 17.3 178.519 17.124 178.719L15.984 178.563ZM25.9762 181.767C26.3842 181.767 26.7442 181.623 27.0562 181.335C27.3682 181.047 27.6122 180.643 27.7882 180.123C27.9642 179.603 28.0522 179.007 28.0522 178.335C28.0522 177.663 27.9642 177.067 27.7882 176.547C27.6202 176.027 27.3762 175.623 27.0562 175.335C26.7442 175.047 26.3842 174.903 25.9762 174.903C25.5682 174.903 25.2042 175.047 24.8842 175.335C24.5722 175.623 24.3282 176.027 24.1522 176.547C23.9842 177.067 23.9002 177.663 23.9002 178.335C23.9002 179.007 23.9882 179.603 24.1642 180.123C24.3402 180.643 24.5842 181.047 24.8962 181.335C25.2082 181.623 25.5682 181.767 25.9762 181.767ZM25.9762 182.775C25.3522 182.775 24.7962 182.587 24.3082 182.211C23.8202 181.835 23.4402 181.311 23.1682 180.639C22.8962 179.959 22.7602 179.191 22.7602 178.335C22.7602 177.479 22.8962 176.715 23.1682 176.043C23.4402 175.363 23.8202 174.835 24.3082 174.459C24.7962 174.083 25.3522 173.895 25.9762 173.895C26.6002 173.895 27.1562 174.083 27.6442 174.459C28.1322 174.835 28.5122 175.363 28.7842 176.043C29.0562 176.715 29.1922 177.479 29.1922 178.335C29.1922 179.191 29.0562 179.959 28.7842 180.639C28.5122 181.311 28.1322 181.835 27.6442 182.211C27.1562 182.587 26.6002 182.775 25.9762 182.775ZM31.0968 184.203H30.2568L30.6768 181.623H31.8648L31.0968 184.203ZM37.0738 181.767C37.4818 181.767 37.8418 181.623 38.1538 181.335C38.4658 181.047 38.7098 180.643 38.8858 180.123C39.0618 179.603 39.1498 179.007 39.1498 178.335C39.1498 177.663 39.0618 177.067 38.8858 176.547C38.7178 176.027 38.4738 175.623 38.1538 175.335C37.8418 175.047 37.4818 174.903 37.0738 174.903C36.6658 174.903 36.3018 175.047 35.9818 175.335C35.6698 175.623 35.4258 176.027 35.2498 176.547C35.0818 177.067 34.9978 177.663 34.9978 178.335C34.9978 179.007 35.0858 179.603 35.2618 180.123C35.4378 180.643 35.6818 181.047 35.9938 181.335C36.3058 181.623 36.6658 181.767 37.0738 181.767ZM37.0738 182.775C36.4498 182.775 35.8938 182.587 35.4058 182.211C34.9178 181.835 34.5378 181.311 34.2658 180.639C33.9938 179.959 33.8578 179.191 33.8578 178.335C33.8578 177.479 33.9938 176.715 34.2658 176.043C34.5378 175.363 34.9178 174.835 35.4058 174.459C35.8938 174.083 36.4498 173.895 37.0738 173.895C37.6978 173.895 38.2538 174.083 38.7418 174.459C39.2298 174.835 39.6098 175.363 39.8818 176.043C40.1538 176.715 40.2898 177.479 40.2898 178.335C40.2898 179.191 40.1538 179.959 39.8818 180.639C39.6098 181.311 39.2298 181.835 38.7418 182.211C38.2538 182.587 37.6978 182.775 37.0738 182.775ZM44.7144 181.767C45.1224 181.767 45.4824 181.623 45.7944 181.335C46.1064 181.047 46.3504 180.643 46.5264 180.123C46.7024 179.603 46.7904 179.007 46.7904 178.335C46.7904 177.663 46.7024 177.067 46.5264 176.547C46.3584 176.027 46.1144 175.623 45.7944 175.335C45.4824 175.047 45.1224 174.903 44.7144 174.903C44.3064 174.903 43.9424 175.047 43.6224 175.335C43.3104 175.623 43.0664 176.027 42.8904 176.547C42.7224 177.067 42.6384 177.663 42.6384 178.335C42.6384 179.007 42.7264 179.603 42.9024 180.123C43.0784 180.643 43.3224 181.047 43.6344 181.335C43.9464 181.623 44.3064 181.767 44.7144 181.767ZM44.7144 182.775C44.0904 182.775 43.5344 182.587 43.0464 182.211C42.5584 181.835 42.1784 181.311 41.9064 180.639C41.6344 179.959 41.4984 179.191 41.4984 178.335C41.4984 177.479 41.6344 176.715 41.9064 176.043C42.1784 175.363 42.5584 174.835 43.0464 174.459C43.5344 174.083 44.0904 173.895 44.7144 173.895C45.3384 173.895 45.8944 174.083 46.3824 174.459C46.8704 174.835 47.2504 175.363 47.5224 176.043C47.7944 176.715 47.9304 177.479 47.9304 178.335C47.9304 179.191 47.7944 179.959 47.5224 180.639C47.2504 181.311 46.8704 181.835 46.3824 182.211C45.8944 182.587 45.3384 182.775 44.7144 182.775ZM52.3551 181.767C52.7631 181.767 53.1231 181.623 53.4351 181.335C53.7471 181.047 53.9911 180.643 54.1671 180.123C54.3431 179.603 54.4311 179.007 54.4311 178.335C54.4311 177.663 54.3431 177.067 54.1671 176.547C53.9991 176.027 53.7551 175.623 53.4351 175.335C53.1231 175.047 52.7631 174.903 52.3551 174.903C51.9471 174.903 51.5831 175.047 51.2631 175.335C50.9511 175.623 50.7071 176.027 50.5311 176.547C50.3631 177.067 50.2791 177.663 50.2791 178.335C50.2791 179.007 50.3671 179.603 50.5431 180.123C50.7191 180.643 50.9631 181.047 51.2751 181.335C51.5871 181.623 51.9471 181.767 52.3551 181.767ZM52.3551 182.775C51.7311 182.775 51.1751 182.587 50.6871 182.211C50.1991 181.835 49.8191 181.311 49.5471 180.639C49.2751 179.959 49.1391 179.191 49.1391 178.335C49.1391 177.479 49.2751 176.715 49.5471 176.043C49.8191 175.363 50.1991 174.835 50.6871 174.459C51.1751 174.083 51.7311 173.895 52.3551 173.895C52.9791 173.895 53.5351 174.083 54.0231 174.459C54.5111 174.835 54.8911 175.363 55.1631 176.043C55.4351 176.715 55.5711 177.479 55.5711 178.335C55.5711 179.191 55.4351 179.959 55.1631 180.639C54.8911 181.311 54.5111 181.835 54.0231 182.211C53.5351 182.587 52.9791 182.775 52.3551 182.775ZM68.1013 172.971V183.615H66.9133V172.971H68.1013ZM62.4613 173.763C62.9893 173.763 63.4573 173.919 63.8653 174.231C64.2813 174.535 64.6053 174.971 64.8373 175.539C65.0693 176.099 65.1853 176.751 65.1853 177.495C65.1853 178.247 65.0693 178.907 64.8373 179.475C64.6053 180.043 64.2813 180.483 63.8653 180.795C63.4573 181.099 62.9893 181.251 62.4613 181.251C61.9333 181.251 61.4613 181.099 61.0453 180.795C60.6293 180.483 60.3053 180.043 60.0733 179.475C59.8413 178.907 59.7253 178.247 59.7253 177.495C59.7253 176.751 59.8413 176.099 60.0733 175.539C60.3053 174.971 60.6293 174.535 61.0453 174.231C61.4613 173.919 61.9333 173.763 62.4613 173.763ZM62.4613 174.831C61.9813 174.831 61.5933 175.071 61.2973 175.551C61.0093 176.031 60.8653 176.679 60.8653 177.495C60.8653 178.319 61.0093 178.975 61.2973 179.463C61.5933 179.943 61.9813 180.183 62.4613 180.183C62.9333 180.183 63.3173 179.943 63.6133 179.463C63.9093 178.975 64.0573 178.319 64.0573 177.495C64.0573 176.679 63.9093 176.031 63.6133 175.551C63.3173 175.071 62.9333 174.831 62.4613 174.831ZM73.5256 173.547V174.675C73.5256 175.379 73.7496 176.023 74.1976 176.607C74.6456 177.183 75.2576 177.603 76.0336 177.867L75.4216 178.779C74.8616 178.587 74.3696 178.299 73.9456 177.915C73.5296 177.523 73.2016 177.067 72.9616 176.547C72.7376 177.139 72.4056 177.655 71.9656 178.095C71.5336 178.535 71.0136 178.867 70.4056 179.091L69.7696 178.155C70.5856 177.867 71.2216 177.399 71.6776 176.751C72.1336 176.095 72.3616 175.371 72.3616 174.579V173.547H73.5256ZM78.1456 172.983V175.623H79.6576V176.607H78.1456V179.367H76.9696V172.983H78.1456ZM74.7376 179.643C75.8336 179.643 76.6936 179.815 77.3176 180.159C77.9496 180.503 78.2656 180.987 78.2656 181.611C78.2656 182.235 77.9496 182.719 77.3176 183.063C76.6936 183.415 75.8336 183.591 74.7376 183.591C73.6416 183.591 72.7776 183.415 72.1456 183.063C71.5216 182.719 71.2096 182.235 71.2096 181.611C71.2096 180.987 71.5216 180.503 72.1456 180.159C72.7776 179.815 73.6416 179.643 74.7376 179.643ZM74.7376 180.555C73.9936 180.555 73.4096 180.647 72.9856 180.831C72.5696 181.015 72.3616 181.275 72.3616 181.611C72.3616 181.955 72.5696 182.219 72.9856 182.403C73.4016 182.587 73.9856 182.679 74.7376 182.679C75.4816 182.679 76.0616 182.587 76.4776 182.403C76.8936 182.219 77.1016 181.955 77.1016 181.611C77.1016 181.275 76.8936 181.015 76.4776 180.831C76.0616 180.647 75.4816 180.555 74.7376 180.555ZM91.5075 173.655V174.579C91.5075 175.259 91.4915 175.863 91.4595 176.391C91.4275 176.919 91.3515 177.519 91.2315 178.191H92.7195V179.163H88.4835V183.627H87.2955V179.163H83.1195V178.191H90.0315C90.1755 177.535 90.2635 176.943 90.2955 176.415C90.3355 175.887 90.3555 175.283 90.3555 174.603H84.2955V173.655H91.5075ZM102.656 172.983V183.603H101.54V178.095H100.304V183.087H99.1878V173.199H100.304V177.135H101.54V172.983H102.656ZM98.0598 174.159V180.831H93.9678V174.159H98.0598ZM95.0598 175.083V179.907H96.9558V175.083H95.0598ZM110.75 173.871V175.623C110.75 176.271 110.866 176.907 111.098 177.531C111.33 178.155 111.654 178.711 112.07 179.199C112.486 179.679 112.966 180.039 113.51 180.279L112.814 181.227C112.214 180.939 111.686 180.515 111.23 179.955C110.774 179.395 110.422 178.751 110.174 178.023C109.926 178.815 109.57 179.507 109.106 180.099C108.642 180.691 108.098 181.139 107.474 181.443L106.766 180.471C107.31 180.223 107.794 179.847 108.218 179.343C108.642 178.839 108.97 178.263 109.202 177.615C109.442 176.959 109.562 176.295 109.562 175.623V173.871H110.75ZM115.574 172.971V183.615H114.398V172.971H115.574Z" fill="#1D2939"/>
<rect x="15" y="222" width="129" height="39" rx="16" fill="#126DFB"/>
<path d="M57.3553 235.564V237.612C57.3553 238.999 57.6273 240.273 58.1713 241.436C58.7153 242.588 59.5419 243.431 60.6513 243.964L59.3713 245.66C58.6459 245.297 58.0273 244.791 57.5153 244.14C57.0033 243.479 56.5926 242.711 56.2833 241.836C55.9739 242.775 55.5419 243.596 54.9873 244.3C54.4326 244.993 53.7606 245.532 52.9713 245.916L51.7073 244.188C52.8699 243.644 53.7446 242.769 54.3313 241.564C54.9286 240.359 55.2273 239.041 55.2273 237.612V235.564H57.3553ZM63.3073 234.476V239.98H65.3713V241.756H63.3073V248.876H61.1633V234.476H63.3073ZM68.8916 241.276V239.564C68.369 239.319 67.969 239.02 67.6916 238.668C67.4143 238.305 67.2756 237.9 67.2756 237.452C67.2756 236.887 67.489 236.396 67.9156 235.98C68.3423 235.553 68.9503 235.228 69.7396 235.004C70.529 234.78 71.4516 234.668 72.5076 234.668C73.5636 234.668 74.4863 234.78 75.2756 235.004C76.065 235.228 76.673 235.553 77.0996 235.98C77.5263 236.396 77.7396 236.887 77.7396 237.452C77.7396 237.911 77.5956 238.321 77.3076 238.684C77.0196 239.047 76.6036 239.351 76.0596 239.596V241.276H79.0036V242.94H65.9956V241.276H68.8916ZM72.4756 243.644C74.033 243.644 75.2543 243.873 76.1396 244.332C77.025 244.78 77.4676 245.42 77.4676 246.252C77.4676 247.084 77.025 247.729 76.1396 248.188C75.265 248.647 74.0436 248.876 72.4756 248.876C70.9076 248.876 69.681 248.647 68.7956 248.188C67.9103 247.729 67.4676 247.084 67.4676 246.252C67.4676 245.42 67.9103 244.78 68.7956 244.332C69.681 243.873 70.9076 243.644 72.4756 243.644ZM72.4756 245.244C71.5156 245.244 70.7956 245.329 70.3156 245.5C69.8463 245.66 69.6116 245.911 69.6116 246.252C69.6116 246.604 69.8463 246.865 70.3156 247.036C70.785 247.196 71.505 247.276 72.4756 247.276C73.4356 247.276 74.1503 247.196 74.6196 247.036C75.089 246.865 75.3236 246.604 75.3236 246.252C75.3236 245.911 75.089 245.66 74.6196 245.5C74.1503 245.329 73.4356 245.244 72.4756 245.244ZM72.5076 236.284C71.5156 236.284 70.7583 236.385 70.2356 236.588C69.7236 236.78 69.4676 237.068 69.4676 237.452C69.4676 237.836 69.729 238.124 70.2516 238.316C70.7743 238.508 71.5263 238.604 72.5076 238.604C73.489 238.604 74.2356 238.508 74.7476 238.316C75.2703 238.124 75.5316 237.836 75.5316 237.452C75.5316 237.068 75.2703 236.78 74.7476 236.588C74.2356 236.385 73.489 236.284 72.5076 236.284ZM73.9476 241.276V240.124C73.4463 240.177 72.9663 240.204 72.5076 240.204C72.017 240.204 71.5156 240.177 71.0036 240.124V241.276H73.9476ZM91.292 234.476V240.06H93.34V241.82H91.292V248.876H89.164V234.476H91.292ZM83.036 236.572V234.716H85.196V236.572H88.3V238.268H79.9V236.572H83.036ZM84.124 239.052C84.8173 239.052 85.4413 239.201 85.996 239.5C86.5613 239.788 86.9987 240.193 87.308 240.716C87.628 241.239 87.788 241.831 87.788 242.492C87.788 243.153 87.628 243.745 87.308 244.268C86.9987 244.791 86.5613 245.201 85.996 245.5C85.4413 245.788 84.8173 245.932 84.124 245.932C83.4307 245.932 82.8067 245.788 82.252 245.5C81.6973 245.201 81.26 244.791 80.94 244.268C80.62 243.745 80.46 243.153 80.46 242.492C80.46 241.831 80.62 241.239 80.94 240.716C81.26 240.193 81.6973 239.788 82.252 239.5C82.8067 239.201 83.4307 239.052 84.124 239.052ZM84.124 240.78C83.6333 240.78 83.2387 240.935 82.94 241.244C82.652 241.543 82.508 241.959 82.508 242.492C82.508 243.025 82.652 243.447 82.94 243.756C83.2387 244.055 83.6333 244.204 84.124 244.204C84.604 244.204 84.9933 244.055 85.292 243.756C85.5907 243.447 85.74 243.025 85.74 242.492C85.74 241.959 85.5907 241.543 85.292 241.244C84.9933 240.935 84.604 240.78 84.124 240.78ZM105.964 234.46V248.86H103.82V234.46H105.964ZM101.692 235.932C101.692 237.5 101.49 238.919 101.084 240.188C100.69 241.447 100.007 242.604 99.0364 243.66C98.0657 244.716 96.7484 245.644 95.0844 246.444L93.9804 244.764C95.783 243.9 97.111 242.897 97.9644 241.756C98.8284 240.615 99.3404 239.239 99.5004 237.628H94.7484V235.932H101.692Z" fill="white"/>
</svg>
